Newq.glyphspackage
{
glyphname = exclam;
layers = (
{
layerId = "CA145713-800E-4AD6-B2AC-DB97E56B9903";
shapes = (
{
closed = 1;
nodes = (
(275,232,l),
(305,700,l),
(60,700,l),
(90,232,l)
);
},
{
closed = 1;
nodes = (
(229,-2,o),
(266,35,o),
(266,81,cs),
(266,127,o),
(229,164,o),
(183,164,cs),
(137,164,o),
(100,127,o),
(100,81,cs),
(100,35,o),
(137,-2,o),
(183,-2,cs)
);
}
);
width = 365;
}
);
unicode = 33;
}
{
glyphname = quotedbl;
layers = (
{
layerId = "CA145713-800E-4AD6-B2AC-DB97E56B9903";
shapes = (
{
closed = 1;
nodes = (
(378,613,l),
(403,842,l),
(256,842,l),
(281,613,l)
);
},
{
closed = 1;
nodes = (
(162,613,l),
(187,842,l),
(40,842,l),
(65,613,l)
);
}
);
width = 443;
}
);
unicode = 34;
}
{
glyphname = numbersign;
layers = (
{
layerId = "CA145713-800E-4AD6-B2AC-DB97E56B9903";
shapes = (
{
closed = 1;
nodes = (
(189,-8,l),
(419,705,l),
(334,705,l),
(104,-8,l)
);
},
{
closed = 1;
nodes = (
(375,-8,l),
(605,705,l),
(519,705,l),
(289,-8,l)
);
},
{
closed = 1;
nodes = (
(595,208,l),
(622,290,l),
(57,290,l),
(30,208,l)
);
},
{
closed = 1;
nodes = (
(657,418,l),
(684,500,l),
(119,500,l),
(92,418,l)
);
}
);
width = 714;
}
);
unicode = 35;
}
{
glyphname = dollar;
layers = (
{
layerId = "CA145713-800E-4AD6-B2AC-DB97E56B9903";
shapes = (
{
closed = 1;
nodes = (
(439,18,o),
(536,100,o),
(536,231,cs),
(536,456,o),
(270,438,o),
(270,528,cs),
(270,563,o),
(294,593,o),
(340,593,cs),
(385,593,o),
(450,562,o),
(492,527,c),
(539,637,l),
(497,657,o),
(402,698,o),
(313,698,cs),
(165,698,o),
(68,605,o),
(68,483,cs),
(68,252,o),
(331,286,o),
(331,185,cs),
(331,150,o),
(307,124,o),
(260,124,cs),
(213,124,o),
(148,157,o),
(106,192,c),
(57,79,l),
(99,60,o),
(198,18,o),
(289,18,cs)
);
},
{
closed = 1;
nodes = (
(359,-65,l),
(359,34,l),
(260,34,l),
(260,-65,l)
);
},
{
closed = 1;
nodes = (
(359,680,l),
(359,779,l),
(260,779,l),
(260,680,l)
);
}
);
width = 600;
}
);
unicode = 36;
}
{
glyphname = percent;
layers = (
{
layerId = "CA145713-800E-4AD6-B2AC-DB97E56B9903";
shapes = (
{
closed = 1;
nodes = (
(212,0,l),
(747,700,l),
(681,700,l),
(146,0,l)
);
},
{
closed = 1;
nodes = (
(379,347,o),
(457,430,o),
(457,532,cs),
(457,635,o),
(379,719,o),
(249,719,cs),
(118,719,o),
(40,635,o),
(40,532,cs),
(40,430,o),
(118,347,o),
(249,347,cs)
);
},
{
closed = 1;
nodes = (
(224,393,o),
(203,407,o),
(203,424,cs),
(203,635,ls),
(203,653,o),
(224,668,o),
(249,668,cs),
(274,668,o),
(295,653,o),
(295,635,cs),
(295,424,ls),
(295,407,o),
(274,393,o),
(249,393,cs)
);
},
{
closed = 1;
nodes = (
(784,-15,o),
(862,68,o),
(862,170,cs),
(862,273,o),
(784,357,o),
(654,357,cs),
(523,357,o),
(445,273,o),
(445,170,cs),
(445,68,o),
(523,-15,o),
(654,-15,cs)
);
},
{
closed = 1;
nodes = (
(629,31,o),
(608,45,o),
(608,62,cs),
(608,273,ls),
(608,291,o),
(629,306,o),
(654,306,cs),
(679,306,o),
(700,291,o),
(700,273,cs),
(700,62,ls),
(700,45,o),
(679,31,o),
(654,31,cs)
);
}
);
width = 902;
}
);
unicode = 37;
}
{
glyphname = ampersand;
layers = (
{
layerId = "CA145713-800E-4AD6-B2AC-DB97E56B9903";
shapes = (
{
closed = 1;
nodes = (
(553,-19,o),
(728,232,o),
(763,351,c),
(638,427,l),
(600,273,o),
(451,84,o),
(342,84,cs),
(286,84,o),
(238,135,o),
(238,183,cs),
(238,347,o),
(569,339,o),
(569,542,cs),
(569,656,o),
(461,709,o),
(347,709,cs),
(245,709,o),
(113,650,o),
(113,487,cs),
(113,412,o),
(169,325,o),
(228,273,c),
(573,0,l),
(858,0,l),
(429,351,l),
(343,419,o),
(286,476,o),
(286,539,cs),
(286,570,o),
(304,607,o),
(351,607,cs),
(396,607,o),
(410,564,o),
(410,538,cs),
(410,375,o),
(20,384,o),
(20,173,cs),
(20,50,o),
(113,-19,o),
(304,-19,cs)
);
}
);
width = 863;
}
);
unicode = 38;
}
{
glyphname = quotesingle;
layers = (
{
layerId = "CA145713-800E-4AD6-B2AC-DB97E56B9903";
shapes = (
{
closed = 1;
nodes = (
(162,613,l),
(187,842,l),
(40,842,l),
(65,613,l)
);
}
);
width = 227;
}
);
unicode = 39;
}
{
glyphname = parenleft;
layers = (
{
layerId = "CA145713-800E-4AD6-B2AC-DB97E56B9903";
shapes = (
{
closed = 1;
nodes = (
(121,-39,o),
(30,131,o),
(30,308,cs),
(30,484,o),
(121,654,o),
(177,710,c),
(268,710,l),
(225,654,o),
(146,484,o),
(146,308,cs),
(146,131,o),
(225,-39,o),
(268,-94,c),
(177,-94,l)
);
}
);
width = 298;
}
);
unicode = 40;
}
{
glyphname = parenright;
layers = (
{
layerId = "CA145713-800E-4AD6-B2AC-DB97E56B9903";
shapes = (
{
closed = 1;
nodes = (
(30,-94,l),
(73,-39,o),
(152,131,o),
(152,308,cs),
(152,484,o),
(73,654,o),
(30,710,c),
(121,710,l),
(177,654,o),
(268,484,o),
(268,308,cs),
(268,131,o),
(177,-39,o),
(121,-94,c)
);
}
);
width = 298;
}
);
unicode = 41;
}
{
glyphname = asterisk;
layers = (
{
layerId = "CA145713-800E-4AD6-B2AC-DB97E56B9903";
shapes = (
{
closed = 1;
nodes = (
(172,590,l),
(179,700,l),
(121,700,l),
(128,590,l)
);
},
{
closed = 1;
nodes = (
(128,590,l),
(121,479,l),
(179,479,l),
(172,590,l)
);
},
{
closed = 1;
nodes = (
(139,608,l),
(40,559,l),
(69,509,l),
(161,571,l)
);
},
{
closed = 1;
nodes = (
(161,571,l),
(260,620,l),
(231,670,l),
(139,608,l)
);
},
{
closed = 1;
nodes = (
(139,571,l),
(231,509,l),
(260,559,l),
(161,608,l)
);
},
{
closed = 1;
nodes = (
(161,608,l),
(69,670,l),
(40,620,l),
(139,571,l)
);
}
);
width = 300;
}
);
unicode = 42;
}
{
glyphname = comma;
layers = (
{
layerId = "CA145713-800E-4AD6-B2AC-DB97E56B9903";
shapes = (
{
closed = 1;
nodes = (
(171,-62,o),
(213,-18,o),
(213,61,cs),
(213,130,o),
(171,164,o),
(123,164,cs),
(77,164,o),
(40,127,o),
(40,81,cs),
(40,35,o),
(77,-2,o),
(123,-2,cs),
(127,-2,o),
(131,-2,o),
(135,-1,c),
(137,-11,o),
(138,-22,o),
(138,-33,cs),
(138,-51,o),
(135,-69,o),
(131,-83,c)
);
}
);
width = 273;
}
);
unicode = 44;
}
{
glyphname = hyphen;
layers = (
{
layerId = "CA145713-800E-4AD6-B2AC-DB97E56B9903";
shapes = (
{
closed = 1;
nodes = (
(282,275,l),
(282,457,l),
(40,457,l),
(40,275,l)
);
}
);
width = 322;
}
);
unicode = 45;
}
{
glyphname = period;
layers = (
{
layerId = "CA145713-800E-4AD6-B2AC-DB97E56B9903";
shapes = (
{
closed = 1;
nodes = (
(189,-2,o),
(226,35,o),
(226,81,cs),
(226,127,o),
(189,164,o),
(143,164,cs),
(97,164,o),
(60,127,o),
(60,81,cs),
(60,35,o),
(97,-2,o),
(143,-2,cs)
);
}
);
width = 286;
}
);
unicode = 46;
}
{
glyphname = slash;
layers = (
{
layerId = "CA145713-800E-4AD6-B2AC-DB97E56B9903";
shapes = (
{
closed = 1;
nodes = (
(115,-153,l),
(392,705,l),
(307,705,l),
(30,-153,l)
);
}
);
width = 422;
}
);
unicode = 47;
}
{
glyphname = zero;
layers = (
{
layerId = "CA145713-800E-4AD6-B2AC-DB97E56B9903";
shapes = (
{
closed = 1;
nodes = (
(705,-10,o),
(859,154,o),
(859,356,cs),
(859,558,o),
(705,722,o),
(450,722,cs),
(194,722,o),
(40,558,o),
(40,356,cs),
(40,154,o),
(194,-10,o),
(450,-10,cs)
);
},
{
closed = 1;
nodes = (
(400,80,o),
(360,108,o),
(360,143,cs),
(360,557,ls),
(360,592,o),
(400,620,o),
(450,620,cs),
(500,620,o),
(540,592,o),
(540,557,cs),
(540,143,ls),
(540,108,o),
(500,80,o),
(450,80,cs)
);
}
);
width = 899;
}
);
unicode = 48;
}
{
glyphname = one;
layers = (
{
layerId = "CA145713-800E-4AD6-B2AC-DB97E56B9903";
shapes = (
{
closed = 1;
nodes = (
(369,0,l),
(369,700,l),
(89,700,l),
(89,0,l)
);
},
{
closed = 1;
nodes = (
(234,599,l),
(234,700,l),
(20,700,l),
(20,599,l)
);
}
);
width = 409;
}
);
unicode = 49;
}
{
glyphname = two;
layers = (
{
layerId = "CA145713-800E-4AD6-B2AC-DB97E56B9903";
shapes = (
{
closed = 1;
nodes = (
(339,0,l),
(344,232,o),
(633,343,o),
(633,500,cs),
(633,642,o),
(527,721,o),
(326,721,cs),
(213,721,o),
(121,690,o),
(67,670,c),
(126,560,l),
(158,580,o),
(260,616,o),
(299,616,cs),
(349,616,o),
(382,599,o),
(382,558,cs),
(382,459,o),
(60,269,o),
(60,0,c)
);
},
{
closed = 1;
nodes = (
(614,0,l),
(614,115,l),
(306,115,l),
(306,0,l)
);
}
);
width = 693;
}
);
unicode = 50;
}
{
glyphname = three;
layers = (
{
layerId = "CA145713-800E-4AD6-B2AC-DB97E56B9903";
shapes = (
{
closed = 1;
nodes = (
(572,-10,o),
(727,76,o),
(727,242,cs),
(727,394,o),
(568,457,o),
(421,457,cs),
(399,457,o),
(375,455,o),
(352,452,c),
(419,402,l),
(651,590,l),
(651,702,l),
(119,700,l),
(119,599,l),
(422,599,l),
(216,436,l),
(216,341,l),
(375,341,o),
(419,281,o),
(419,200,cs),
(419,124,o),
(362,80,o),
(312,80,cs),
(233,80,o),
(152,115,o),
(100,190,c),
(40,68,l),
(123,16,o),
(252,-10,o),
(347,-10,cs)
);
}
);
width = 767;
}
);
unicode = 51;
}
{
glyphname = four;
layers = (
{
layerId = "CA145713-800E-4AD6-B2AC-DB97E56B9903";
shapes = (
{
closed = 1;
nodes = (
(643,0,l),
(643,180,l),
(731,180,l),
(731,290,l),
(643,290,l),
(643,700,l),
(364,700,l),
(10,290,l),
(10,180,l),
(364,180,l),
(364,0,l)
);
},
{
closed = 1;
nodes = (
(463,642,l),
(364,651,l),
(364,290,l),
(109,290,l),
(130,256,l)
);
}
);
width = 771;
}
);
unicode = 52;
}
{
glyphname = five;
layers = (
{
layerId = "CA145713-800E-4AD6-B2AC-DB97E56B9903";
shapes = (
{
closed = 1;
nodes = (
(551,-10,o),
(706,76,o),
(706,242,cs),
(706,394,o),
(547,457,o),
(400,457,cs),
(351,457,o),
(291,448,o),
(254,437,c),
(273,386,l),
(273,599,l),
(611,599,l),
(611,700,l),
(106,702,l),
(106,323,l),
(147,334,o),
(188,341,o),
(246,341,cs),
(346,341,o),
(398,281,o),
(398,200,cs),
(398,124,o),
(341,80,o),
(291,80,cs),
(212,80,o),
(131,115,o),
(79,190,c),
(19,68,l),
(102,16,o),
(231,-10,o),
(326,-10,cs)
);
}
);
width = 727;
}
);
unicode = 53;
}
{
glyphname = six;
layers = (
{
layerId = "CA145713-800E-4AD6-B2AC-DB97E56B9903";
shapes = (
{
closed = 1;
nodes = (
(680,-10,o),
(833,80,o),
(833,213,cs),
(833,365,o),
(695,431,o),
(546,431,cs),
(436,431,o),
(355,410,o),
(289,344,c),
(349,200,l),
(333,289,o),
(326,353,o),
(326,401,cs),
(326,508,o),
(363,616,o),
(491,616,cs),
(577,616,o),
(651,575,o),
(681,555,c),
(740,665,l),
(686,685,o),
(631,721,o),
(479,721,cs),
(203,721,o),
(40,560,o),
(40,323,cs),
(40,90,o),
(193,-10,o),
(437,-10,cs)
);
},
{
closed = 1;
nodes = (
(386,80,o),
(349,136,o),
(349,212,cs),
(349,213,ls),
(349,274,o),
(386,323,o),
(437,323,cs),
(491,323,o),
(524,281,o),
(524,200,cs),
(524,124,o),
(487,80,o),
(437,80,cs)
);
}
);
width = 873;
}
);
unicode = 54;
}
{
glyphname = seven;
layers = (
{
layerId = "CA145713-800E-4AD6-B2AC-DB97E56B9903";
shapes = (
{
closed = 1;
nodes = (
(379,0,l),
(580,700,l),
(292,700,l),
(100,0,l)
);
},
{
closed = 1;
nodes = (
(302,599,l),
(302,700,l),
(20,700,l),
(20,599,l)
);
}
);
width = 600;
}
);
unicode = 55;
}
{
glyphname = eight;
layers = (
{
layerId = "CA145713-800E-4AD6-B2AC-DB97E56B9903";
shapes = (
{
closed = 1;
nodes = (
(680,-10,o),
(833,69,o),
(833,200,cs),
(833,275,o),
(786,344,o),
(701,377,c),
(742,408,o),
(768,455,o),
(768,508,cs),
(768,642,o),
(630,722,o),
(436,722,cs),
(211,722,o),
(105,631,o),
(105,508,cs),
(105,455,o),
(131,408,o),
(172,377,c),
(87,344,o),
(40,275,o),
(40,200,cs),
(40,69,o),
(193,-10,o),
(437,-10,cs)
);
},
{
closed = 1;
nodes = (
(386,80,o),
(349,124,o),
(349,200,cs),
(349,269,o),
(383,311,o),
(437,311,cs),
(491,311,o),
(524,269,o),
(524,200,cs),
(524,124,o),
(487,80,o),
(437,80,cs)
);
},
{
closed = 1;
nodes = (
(389,413,o),
(358,459,o),
(358,508,cs),
(358,510,ls),
(358,558,o),
(360,620,o),
(437,620,cs),
(506,620,o),
(515,558,o),
(515,510,cs),
(515,508,ls),
(515,459,o),
(485,413,o),
(437,413,cs)
);
}
);
width = 834;
}
);
unicode = 56;
}
{
glyphname = nine;
layers = (
{
layerId = "CA145713-800E-4AD6-B2AC-DB97E56B9903";
shapes = (
{
closed = 1;
nodes = (
(670,-10,o),
(833,151,o),
(833,388,cs),
(833,621,o),
(680,721,o),
(436,721,cs),
(193,721,o),
(40,635,o),
(40,476,cs),
(40,324,o),
(178,266,o),
(327,266,cs),
(437,266,o),
(533,301,o),
(584,367,c),
(524,511,l),
(540,422,o),
(547,358,o),
(547,310,cs),
(547,203,o),
(510,95,o),
(382,95,cs),
(296,95,o),
(195,136,o),
(165,156,c),
(106,46,l),
(160,26,o),
(242,-10,o),
(394,-10,cs)
);
},
{
closed = 1;
nodes = (
(382,388,o),
(349,436,o),
(349,505,cs),
(349,581,o),
(386,631,o),
(436,631,cs),
(487,631,o),
(524,587,o),
(524,511,cs),
(524,498,ls),
(524,437,o),
(487,388,o),
(436,388,cs)
);
}
);
width = 873;
}
);
unicode = 57;
}
{
glyphname = colon;
layers = (
{
layerId = "CA145713-800E-4AD6-B2AC-DB97E56B9903";
shapes = (
{
closed = 1;
nodes = (
(169,328,o),
(206,365,o),
(206,411,cs),
(206,457,o),
(169,494,o),
(123,494,cs),
(77,494,o),
(40,457,o),
(40,411,cs),
(40,365,o),
(77,328,o),
(123,328,cs)
);
},
{
closed = 1;
nodes = (
(169,-2,o),
(206,35,o),
(206,81,cs),
(206,127,o),
(169,164,o),
(123,164,cs),
(77,164,o),
(40,127,o),
(40,81,cs),
(40,35,o),
(77,-2,o),
(123,-2,cs)
);
}
);
width = 253;
}
);
unicode = 58;
}
{
glyphname = semicolon;
layers = (
{
layerId = "CA145713-800E-4AD6-B2AC-DB97E56B9903";
shapes = (
{
closed = 1;
nodes = (
(171,-62,o),
(213,-18,o),
(213,61,cs),
(213,130,o),
(171,164,o),
(123,164,cs),
(77,164,o),
(40,127,o),
(40,81,cs),
(40,35,o),
(77,-2,o),
(123,-2,cs),
(127,-2,o),
(131,-2,o),
(135,-1,c),
(137,-11,o),
(138,-22,o),
(138,-33,cs),
(138,-51,o),
(135,-69,o),
(131,-83,c)
);
},
{
closed = 1;
nodes = (
(169,328,o),
(206,365,o),
(206,411,cs),
(206,457,o),
(169,494,o),
(123,494,cs),
(77,494,o),
(40,457,o),
(40,411,cs),
(40,365,o),
(77,328,o),
(123,328,cs)
);
}
);
width = 253;
}
);
unicode = 59;
}
{
glyphname = question;
layers = (
{
layerId = "CA145713-800E-4AD6-B2AC-DB97E56B9903";
shapes = (
{
closed = 1;
nodes = (
(365,226,l),
(361,239,o),
(359,251,o),
(359,262,cs),
(359,394,o),
(641,311,o),
(641,532,cs),
(641,668,o),
(495,721,o),
(336,721,cs),
(205,721,o),
(117,685,o),
(40,622,c),
(99,507,l),
(150,571,o),
(223,611,o),
(290,611,cs),
(348,611,o),
(390,581,o),
(390,536,cs),
(390,447,o),
(226,472,o),
(226,307,cs),
(226,284,o),
(232,257,o),
(245,226,c)
);
},
{
closed = 1;
nodes = (
(367,-2,o),
(404,35,o),
(404,81,cs),
(404,127,o),
(367,164,o),
(321,164,cs),
(275,164,o),
(238,127,o),
(238,81,cs),
(238,35,o),
(275,-2,o),
(321,-2,cs)
);
}
);
width = 681;
}
);
unicode = 63;
}
{
glyphname = at;
layers = (
{
layerId = "CA145713-800E-4AD6-B2AC-DB97E56B9903";
shapes = (
{
closed = 1;
nodes = (
(745,19,l),
(666,-6,o),
(595,-17,o),
(532,-17,cs),
(285,-17,o),
(162,152,o),
(162,307,cs),
(162,483,o),
(287,615,o),
(495,615,cs),
(686,615,o),
(788,473,o),
(788,337,cs),
(788,239,o),
(751,190,o),
(716,190,cs),
(686,190,o),
(669,236,o),
(669,291,cs),
(669,494,l),
(543,494,l),
(543,291,ls),
(543,202,o),
(578,101,o),
(706,101,cs),
(782,101,o),
(892,180,o),
(892,337,cs),
(892,535,o),
(736,704,o),
(495,704,cs),
(245,704,o),
(60,548,o),
(60,308,cs),
(60,78,o),
(259,-90,o),
(496,-90,cs),
(576,-90,o),
(662,-70,o),
(745,-27,c)
);
},
{
closed = 1;
nodes = (
(514,104,o),
(569,145,o),
(580,237,c),
(543,291,l),
(543,262,o),
(532,190,o),
(484,190,cs),
(461,190,o),
(448,211,o),
(448,236,cs),
(448,368,ls),
(448,396,o),
(467,416,o),
(490,416,cs),
(528,416,o),
(543,386,o),
(543,359,c),
(580,368,l),
(569,461,o),
(514,501,o),
(448,501,cs),
(347,501,o),
(280,438,o),
(280,308,cs),
(280,161,o),
(347,104,o),
(448,104,cs)
);
}
);
width = 957;
}
);
unicode = 64;
}
{
glyphname = A;
layers = (
{
layerId = "CA145713-800E-4AD6-B2AC-DB97E56B9903";
shapes = (
{
closed = 1;
nodes = (
(147,0,l),
(184,105,l),
(454,105,l),
(496,0,l),
(793,0,l),
(513,700,l),
(253,700,l),
(10,0,l)
);
},
{
closed = 1;
nodes = (
(309,465,l),
(408,220,l),
(224,220,l)
);
}
);
width = 803;
}
);
unicode = 65;
}
{
glyphname = B;
layers = (
{
layerId = "CA145713-800E-4AD6-B2AC-DB97E56B9903";
shapes = (
{
closed = 1;
nodes = (
(430,0,ls),
(675,0,o),
(829,56,o),
(829,212,cs),
(829,287,o),
(782,344,o),
(697,377,c),
(738,408,o),
(764,449,o),
(764,502,cs),
(764,670,o),
(593,700,o),
(420,700,cs),
(60,700,l),
(60,0,l)
);
},
{
closed = 1;
nodes = (
(339,305,l),
(390,305,ls),
(468,305,o),
(520,271,o),
(520,212,cs),
(520,147,o),
(458,115,o),
(384,115,cs),
(339,115,l)
);
},
{
closed = 1;
nodes = (
(339,599,l),
(390,599,ls),
(468,599,o),
(511,570,o),
(511,510,cs),
(511,508,ls),
(511,444,o),
(458,415,o),
(384,415,cs),
(339,415,l)
);
}
);
width = 869;
}
);
metricLeft = H;
metricRight = O;
unicode = 66;
}
{
glyphname = C;
layers = (
{
anchors = (
{
name = bottom;
pos = (377,0);
},
{
name = top;
pos = (377,700);
}
);
layerId = "CA145713-800E-4AD6-B2AC-DB97E56B9903";
shapes = (
{
closed = 1;
nodes = (
(542,-15,o),
(650,21,o),
(714,58,c),
(637,185,l),
(613,157,o),
(534,87,o),
(449,87,cs),
(400,87,o),
(359,115,o),
(359,150,cs),
(359,551,ls),
(359,586,o),
(400,614,o),
(449,614,cs),
(534,614,o),
(613,544,o),
(637,516,c),
(714,643,l),
(650,680,o),
(542,716,o),
(449,716,cs),
(194,716,o),
(40,552,o),
(40,351,cs),
(40,149,o),
(194,-15,o),
(449,-15,cs)
);
}
);
width = 754;
}
);
metricLeft = O;
metricRight = "=H-20";
unicode = 67;
}
{
glyphname = D;
layers = (
{
layerId = "CA145713-800E-4AD6-B2AC-DB97E56B9903";
shapes = (
{
closed = 1;
nodes = (
(430,0,ls),
(686,0,o),
(840,154,o),
(840,356,cs),
(840,558,o),
(686,699,o),
(430,699,c),
(430,700,l),
(60,700,l),
(60,0,l)
);
},
{
closed = 1;
nodes = (
(339,599,l),
(430,599,ls),
(480,599,o),
(521,571,o),
(521,537,cs),
(521,181,ls),
(521,147,o),
(480,115,o),
(430,115,cs),
(339,115,l)
);
}
);
width = 880;
}
);
metricLeft = H;
metricRight = O;
unicode = (68,100);
}
{
glyphname = E;
layers = (
{
layerId = "CA145713-800E-4AD6-B2AC-DB97E56B9903";
shapes = (
{
closed = 1;
nodes = (
(553,0,l),
(553,115,l),
(339,115,l),
(339,305,l),
(553,305,l),
(553,415,l),
(339,415,l),
(339,599,l),
(553,599,l),
(553,700,l),
(60,700,l),
(60,0,l)
);
}
);
width = 613;
}
);
metricLeft = H;
metricRight = H;
unicode = 69;
}
{
glyphname = F;
layers = (
{
layerId = "CA145713-800E-4AD6-B2AC-DB97E56B9903";
shapes = (
{
closed = 1;
nodes = (
(339,0,l),
(339,305,l),
(553,305,l),
(553,415,l),
(339,415,l),
(339,599,l),
(553,599,l),
(553,700,l),
(60,700,l),
(60,0,l)
);
}
);
width = 583;
}
);
metricLeft = H;
unicode = 70;
}
{
glyphname = G;
layers = (
{
layerId = "CA145713-800E-4AD6-B2AC-DB97E56B9903";
shapes = (
{
closed = 1;
nodes = (
(603,-15,o),
(715,30,o),
(799,109,c),
(799,356,l),
(539,356,l),
(539,138,ls),
(539,103,o),
(499,75,o),
(449,75,cs),
(400,75,o),
(359,103,o),
(359,138,cs),
(359,551,ls),
(359,586,o),
(400,614,o),
(449,614,cs),
(533,614,o),
(613,544,o),
(636,516,c),
(714,643,l),
(650,680,o),
(542,716,o),
(449,716,cs),
(194,716,o),
(40,552,o),
(40,351,cs),
(40,149,o),
(194,-15,o),
(449,-15,cs)
);
}
);
width = 839;
}
);
metricLeft = O;
metricRight = O;
unicode = 71;
}
{
glyphname = H;
layers = (
{
layerId = "CA145713-800E-4AD6-B2AC-DB97E56B9903";
shapes = (
{
closed = 1;
nodes = (
(339,0,l),
(339,305,l),
(519,305,l),
(519,0,l),
(798,0,l),
(798,700,l),
(519,700,l),
(519,415,l),
(339,415,l),
(339,700,l),
(60,700,l),
(60,0,l)
);
}
);
width = 858;
}
);
unicode = (72,104);
}
{
glyphname = I;
layers = (
{
layerId = "CA145713-800E-4AD6-B2AC-DB97E56B9903";
shapes = (
{
closed = 1;
nodes = (
(340,0,l),
(340,700,l),
(60,700,l),
(60,0,l)
);
}
);
width = 400;
}
);
metricLeft = H;
metricRight = H;
unicode = 73;
}
{
glyphname = J;
layers = (
{
layerId = "CA145713-800E-4AD6-B2AC-DB97E56B9903";
shapes = (
{
closed = 1;
nodes = (
(469,-25,o),
(550,111,o),
(550,237,cs),
(550,700,l),
(271,700,l),
(271,178,ls),
(271,119,o),
(228,77,o),
(178,77,cs),
(139,77,o),
(101,92,o),
(69,111,c),
(10,5,l),
(63,-12,o),
(123,-25,o),
(178,-25,cs)
);
}
);
width = 600;
}
);
unicode = 74;
}
{
glyphname = K;
layers = (
{
layerId = "CA145713-800E-4AD6-B2AC-DB97E56B9903";
shapes = (
{
closed = 1;
nodes = (
(442,293,l),
(774,700,l),
(605,700,l),
(274,293,l)
);
},
{
closed = 1;
nodes = (
(339,0,l),
(339,700,l),
(60,700,l),
(60,0,l)
);
},
{
closed = 1;
nodes = (
(763,-11,o),
(817,-4,o),
(817,-4,c),
(817,110,l),
(630,110,o),
(642,293,o),
(492,371,c),
(466,378,o),
(374,324,o),
(339,324,c),
(339,228,l),
(441,228,o),
(414,-11,o),
(732,-11,cs)
);
}
);
width = 857;
}
);
metricLeft = H;
unicode = (75,107);
}
{
glyphname = L;
layers = (
{
layerId = "CA145713-800E-4AD6-B2AC-DB97E56B9903";
shapes = (
{
closed = 1;
nodes = (
(553,0,l),
(553,115,l),
(340,115,l),
(340,700,l),
(60,700,l),
(60,0,l)
);
}
);
width = 573;
}
);
metricLeft = H;
unicode = 76;
}
{
glyphname = M;
layers = (
{
layerId = "CA145713-800E-4AD6-B2AC-DB97E56B9903";
shapes = (
{
closed = 1;
nodes = (
(206,0,l),
(206,349,l),
(478,0,l),
(676,334,l),
(676,0,l),
(956,0,l),
(956,700,l),
(735,700,l),
(514,325,l),
(206,700,l),
(60,700,l),
(60,0,l)
);
}
);
width = 1016;
}
);
metricLeft = H;
metricRight = H;
unicode = 77;
}
{
glyphname = N;
layers = (
{
anchors = (
{
name = bottom;
pos = (409,0);
},
{
name = top;
pos = (409,700);
}
);
layerId = "CA145713-800E-4AD6-B2AC-DB97E56B9903";
shapes = (
{
closed = 1;
nodes = (
(206,0,l),
(206,349,l),
(612,0,l),
(758,0,l),
(758,700,l),
(612,700,l),
(612,357,l),
(206,700,l),
(60,700,l),
(60,0,l)
);
}
);
width = 818;
}
);
metricLeft = H;
metricRight = H;
unicode = 78;
}
{
glyphname = O;
layers = (
{
layerId = "CA145713-800E-4AD6-B2AC-DB97E56B9903";
shapes = (
{
closed = 1;
nodes = (
(705,-15,o),
(859,149,o),
(859,351,cs),
(859,552,o),
(705,716,o),
(450,716,cs),
(194,716,o),
(40,552,o),
(40,351,cs),
(40,149,o),
(194,-15,o),
(450,-15,cs)
);
},
{
closed = 1;
nodes = (
(400,75,o),
(360,103,o),
(360,138,cs),
(360,551,ls),
(360,586,o),
(400,614,o),
(450,614,cs),
(500,614,o),
(540,586,o),
(540,551,cs),
(540,138,ls),
(540,103,o),
(500,75,o),
(450,75,cs)
);
}
);
width = 899;
}
);
unicode = (79,111);
}
{
glyphname = P;
layers = (
{
layerId = "CA145713-800E-4AD6-B2AC-DB97E56B9903";
shapes = (
{
closed = 1;
nodes = (
(339,0,l),
(339,191,l),
(430,191,ls),
(676,191,o),
(830,287,o),
(830,443,cs),
(830,625,o),
(676,700,o),
(430,700,cs),
(60,700,l),
(60,0,l)
);
},
{
closed = 1;
nodes = (
(339,599,l),
(391,599,ls),
(482,599,o),
(520,514,o),
(520,443,cs),
(520,365,o),
(458,287,o),
(385,287,cs),
(339,287,l)
);
}
);
width = 880;
}
);
metricLeft = H;
unicode = (80,112);
}
{
glyphname = Q;
layers = (
{
layerId = "CA145713-800E-4AD6-B2AC-DB97E56B9903";
shapes = (
{
closed = 1;
nodes = (
(791,-16,o),
(827,-12,o),
(845,-9,c),
(845,121,l),
(821,121,o),
(800,122,o),
(781,125,c),
(832,187,o),
(860,266,o),
(860,351,cs),
(860,553,o),
(705,716,o),
(450,716,cs),
(195,716,o),
(40,553,o),
(40,351,cs),
(40,149,o),
(195,-15,o),
(450,-15,cs),
(515,-15,o),
(574,-4,o),
(625,15,c),
(660,-3,o),
(704,-16,o),
(761,-16,cs)
);
},
{
closed = 1;
nodes = (
(410,75,o),
(376,93,o),
(364,118,c),
(378,130,o),
(398,141,o),
(428,141,cs),
(464,141,o),
(490,122,o),
(519,97,c),
(502,84,o),
(478,75,o),
(450,75,cs)
);
},
{
closed = 1;
nodes = (
(360,551,ls),
(360,586,o),
(400,614,o),
(450,614,cs),
(500,614,o),
(540,586,o),
(540,551,cs),
(540,220,l),
(523,225,o),
(504,227,o),
(483,227,cs),
(429,227,o),
(389,207,o),
(360,185,c)
);
}
);
width = 900;
}
);
metricLeft = O;
metricRight = O;
unicode = (81,113);
}
{
glyphname = R;
layers = (
{
layerId = "CA145713-800E-4AD6-B2AC-DB97E56B9903";
shapes = (
{
closed = 1;
nodes = (
(763,-11,o),
(797,-8,o),
(816,-4,c),
(816,105,l),
(709,105,o),
(655,198,o),
(599,241,c),
(752,267,o),
(840,354,o),
(840,462,cs),
(840,639,o),
(685,699,o),
(430,699,c),
(430,700,l),
(60,700,l),
(60,0,l),
(339,0,l),
(339,228,l),
(441,228,o),
(414,-11,o),
(732,-11,cs)
);
},
{
closed = 1;
nodes = (
(339,599,l),
(390,599,ls),
(468,599,o),
(520,554,o),
(520,462,cs),
(520,379,o),
(482,324,o),
(384,324,cs),
(339,324,l)
);
}
);
width = 880;
}
);
metricLeft = H;
unicode = (82,114);
}
{
glyphname = S;
layers = (
{
layerId = "CA145713-800E-4AD6-B2AC-DB97E56B9903";
shapes = (
{
closed = 1;
nodes = (
(549,-15,o),
(687,64,o),
(687,218,cs),
(687,463,o),
(337,474,o),
(337,560,cs),
(337,587,o),
(370,611,o),
(412,611,cs),
(467,611,o),
(558,575,o),
(593,555,c),
(652,665,l),
(598,685,o),
(508,716,o),
(388,716,cs),
(192,716,o),
(58,633,o),
(58,489,cs),
(58,255,o),
(409,317,o),
(409,173,cs),
(409,130,o),
(377,100,o),
(316,100,cs),
(250,100,o),
(162,135,o),
(106,173,c),
(40,51,l),
(116,24,o),
(230,-15,o),
(362,-15,cs)
);
}
);
width = 727;
}
);
unicode = 83;
}
{
glyphname = T;
layers = (
{
layerId = "CA145713-800E-4AD6-B2AC-DB97E56B9903";
shapes = (
{
closed = 1;
nodes = (
(483,0,l),
(483,599,l),
(677,599,l),
(677,700,l),
(10,700,l),
(10,599,l),
(204,599,l),
(204,0,l)
);
}
);
width = 687;
}
);
unicode = 84;
}
{
glyphname = U;
layers = (
{
layerId = "CA145713-800E-4AD6-B2AC-DB97E56B9903";
shapes = (
{
closed = 1;
nodes = (
(548,-15,o),
(651,94,o),
(651,217,cs),
(651,700,l),
(519,700,l),
(519,217,ls),
(519,162,o),
(505,117,o),
(433,117,cs),
(370,117,o),
(339,166,o),
(339,217,cs),
(339,700,l),
(60,700,l),
(60,217,ls),
(60,98,o),
(176,-15,o),
(362,-15,cs)
);
}
);
width = 711;
}
);
metricLeft = H;
metricRight = H;
unicode = (85,117);
}
{
glyphname = V;
layers = (
{
layerId = "CA145713-800E-4AD6-B2AC-DB97E56B9903";
shapes = (
{
closed = 1;
nodes = (
(509,0,l),
(716,700,l),
(578,700,l),
(440,232,l),
(299,700,l),
(10,700,l),
(230,0,l)
);
}
);
width = 726;
}
);
unicode = (86,118);
}
{
glyphname = W;
layers = (
{
layerId = "CA145713-800E-4AD6-B2AC-DB97E56B9903";
shapes = (
{
closed = 1;
nodes = (
(470,0,l),
(559,301,l),
(654,0,l),
(915,0,l),
(1122,700,l),
(985,700,l),
(855,260,l),
(723,700,l),
(434,700,l),
(505,474,l),
(436,241,l),
(298,700,l),
(10,700,l),
(229,0,l)
);
}
);
width = 1132;
}
);
unicode = (87,119);
}
{
glyphname = X;
layers = (
{
layerId = "CA145713-800E-4AD6-B2AC-DB97E56B9903";
shapes = (
{
closed = 1;
nodes = (
(717,0,l),
(353,700,l),
(16,700,l),
(390,0,l)
);
},
{
closed = 1;
nodes = (
(147,0,l),
(370,394,l),
(285,488,l),
(10,0,l)
);
},
{
closed = 1;
nodes = (
(693,700,l),
(556,700,l),
(367,365,l),
(451,271,l)
);
}
);
width = 727;
}
);
unicode = (88,120);
}
{
glyphname = Y;
layers = (
{
layerId = "CA145713-800E-4AD6-B2AC-DB97E56B9903";
shapes = (
{
closed = 1;
nodes = (
(530,0,l),
(530,299,l),
(756,700,l),
(609,700,l),
(472,456,l),
(330,700,l),
(10,700,l),
(251,298,l),
(251,0,l)
);
}
);
width = 766;
}
);
unicode = (89,121);
}
{
glyphname = Z;
layers = (
{
layerId = "CA145713-800E-4AD6-B2AC-DB97E56B9903";
shapes = (
{
closed = 1;
nodes = (
(319,0,l),
(538,700,l),
(250,700,l),
(40,0,l)
);
},
{
closed = 1;
nodes = (
(538,0,l),
(538,115,l),
(286,115,l),
(286,0,l)
);
},
{
closed = 1;
nodes = (
(260,599,l),
(260,700,l),
(46,700,l),
(46,599,l)
);
}
);
width = 578;
}
);
unicode = (90,122);
}
{
glyphname = bracketleft;
layers = (
{
layerId = "CA145713-800E-4AD6-B2AC-DB97E56B9903";
shapes = (
{
closed = 1;
nodes = (
(43,700,l),
(43,639,l),
(249,639,l),
(249,700,l)
);
},
{
closed = 1;
nodes = (
(30,700,l),
(30,-108,l),
(149,-108,l),
(149,700,l)
);
},
{
closed = 1;
nodes = (
(45,-47,l),
(45,-108,l),
(251,-108,l),
(251,-47,l)
);
}
);
width = 281;
}
);
unicode = 91;
}
{
glyphname = backslash;
layers = (
{
layerId = "CA145713-800E-4AD6-B2AC-DB97E56B9903";
shapes = (
{
closed = 1;
nodes = (
(115,705,l),
(30,705,l),
(307,-153,l),
(392,-153,l)
);
}
);
width = 422;
}
);
unicode = 92;
}
{
glyphname = bracketright;
layers = (
{
layerId = "CA145713-800E-4AD6-B2AC-DB97E56B9903";
shapes = (
{
closed = 1;
nodes = (
(32,639,l),
(238,639,l),
(238,700,l),
(32,700,l)
);
},
{
closed = 1;
nodes = (
(132,-108,l),
(251,-108,l),
(251,700,l),
(132,700,l)
);
},
{
closed = 1;
nodes = (
(30,-108,l),
(236,-108,l),
(236,-47,l),
(30,-47,l)
);
}
);
width = 281;
}
);
unicode = 93;
}
{
glyphname = underscore;
layers = (
{
layerId = "CA145713-800E-4AD6-B2AC-DB97E56B9903";
shapes = (
{
closed = 1;
nodes = (
(10,-106,l),
(469,-106,l),
(469,-19,l),
(10,-19,l)
);
}
);
width = 479;
}
);
unicode = 95;
}
{
glyphname = grave;
layers = (
{
layerId = "CA145713-800E-4AD6-B2AC-DB97E56B9903";
shapes = (
{
closed = 1;
nodes = (
(145,692,l),
(0,692,l),
(182,565,l),
(281,564,l)
);
}
);
width = 281;
}
);
unicode = 96;
}
{
color = 4;
glyphname = a;
layers = (
{
anchors = (
{
name = bottom;
pos = (348,0);
},
{
name = ogonek;
pos = (602,10);
},
{
name = top;
pos = (348,500);
}
);
layerId = "CA145713-800E-4AD6-B2AC-DB97E56B9903";
shapes = (
{
closed = 1;
nodes = (
(383,-12,o),
(459,41,o),
(474,163,c),
(422,176,l),
(422,139,o),
(393,100,o),
(357,100,cs),
(309,100,o),
(291,121,o),
(291,146,cs),
(291,352,ls),
(291,377,o),
(309,398,o),
(357,398,cs),
(393,398,o),
(422,359,o),
(422,322,c),
(474,335,l),
(459,457,o),
(383,510,o),
(292,510,cs),
(123,510,o),
(30,401,o),
(30,256,cs),
(30,62,o),
(123,-12,o),
(292,-12,cs)
);
},
{
closed = 1;
nodes = (
(651,0,l),
(651,500,l),
(422,500,l),
(422,0,l)
);
}
);
width = 696;
}
);
unicode = 97;
}
{
glyphname = b;
layers = (
{
layerId = "CA145713-800E-4AD6-B2AC-DB97E56B9903";
shapes = (
{
closed = 1;
nodes = (
(490,-15,o),
(607,104,o),
(607,251,cs),
(607,398,o),
(490,517,o),
(294,517,cs),
(271,517,o),
(250,515,o),
(229,512,c),
(229,687,l),
(30,687,l),
(30,0,l),
(135,0,l),
(192,0,o),
(231,-15,o),
(294,-15,cs)
);
},
{
closed = 1;
nodes = (
(258,61,o),
(229,81,o),
(229,106,cs),
(229,387,ls),
(229,412,o),
(258,433,o),
(294,433,cs),
(331,433,o),
(360,412,o),
(360,387,cs),
(360,106,ls),
(360,81,o),
(331,61,o),
(294,61,cs)
);
}
);
width = 637;
}
);
unicode = 98;
}
{
glyphname = c;
layers = (
{
layerId = "CA145713-800E-4AD6-B2AC-DB97E56B9903";
shapes = (
{
closed = 1;
nodes = (
(533,20,o),
(450,-15,o),
(343,-15,cs),
(147,-15,o),
(30,104,o),
(30,251,cs),
(30,398,o),
(147,517,o),
(343,517,cs),
(453,517,o),
(538,480,o),
(591,421,c),
(517,330,l),
(477,379,o),
(425,433,o),
(343,433,cs),
(307,433,o),
(278,412,o),
(278,387,cs),
(278,106,ls),
(278,81,o),
(307,61,o),
(343,61,cs),
(435,61,o),
(485,134,o),
(509,168,c),
(587,76,l)
);
}
);
width = 611;
}
);
unicode = 99;
}
{
color = 4;
glyphname = d;
layers = (
{
layerId = "CA145713-800E-4AD6-B2AC-DB97E56B9903";
shapes = (
{
closed = 1;
nodes = (
(652,0,l),
(652,687,l),
(423,687,l),
(423,500,l),
(379,500,ls),
(155,500,o),
(30,405,o),
(30,253,cs),
(30,74,o),
(155,0,o),
(379,0,cs)
);
},
{
closed = 1;
nodes = (
(309,83,o),
(281,183,o),
(281,253,cs),
(281,328,o),
(326,413,o),
(396,413,cs),
(423,413,l),
(423,83,l),
(392,83,ls)
);
}
);
width = 697;
}
);
unicode = 100;
}
{
glyphname = e;
kernLeft = o;
kernRight = o;
layers = (
{
anchors = (
{
name = bottom;
pos = (373,0);
},
{
name = ogonek;
pos = (626,87);
},
{
name = top;
pos = (373,500);
}
);
layerId = "CA145713-800E-4AD6-B2AC-DB97E56B9903";
shapes = (
{
closed = 1;
nodes = (
(533,-15,o),
(615,14,o),
(676,87,c),
(563,142,l),
(533,87,o),
(472,52,o),
(410,52,cs),
(337,52,o),
(308,81,o),
(308,106,cs),
(308,387,ls),
(308,412,o),
(337,433,o),
(373,433,cs),
(410,433,o),
(439,412,o),
(439,387,cs),
(439,193,l),
(710,193,l),
(714,212,o),
(716,231,o),
(716,251,cs),
(716,398,o),
(599,517,o),
(373,517,cs),
(147,517,o),
(30,398,o),
(30,251,cs),
(30,104,o),
(147,-15,o),
(373,-15,cs)
);
},
{
closed = 1;
nodes = (
(565,193,l),
(565,272,l),
(206,272,l),
(206,193,l)
);
}
);
width = 746;
}
);
unicode = 101;
}
{
glyphname = f;
layers = (
{
layerId = "CA145713-800E-4AD6-B2AC-DB97E56B9903";
shapes = (
{
closed = 1;
nodes = (
(97,701,o),
(46,614,o),
(46,496,c),
(247,277,l),
(247,532,ls),
(247,597,o),
(299,600,o),
(354,600,c),
(354,701,l),
(313,701,o),
(272,701,o),
(231,701,cs)
);
},
{
closed = 1;
nodes = (
(46,0,l),
(246,0,l),
(246,496,l),
(46,496,l)
);
},
{
closed = 1;
nodes = (
(338,427,l),
(338,500,l),
(5,500,l),
(5,427,l)
);
}
);
width = 374;
}
);
unicode = 102;
}
{
glyphname = g;
layers = (
{
layerId = "CA145713-800E-4AD6-B2AC-DB97E56B9903";
shapes = (
{
closed = 1;
nodes = (
(518,-200,o),
(651,-104,o),
(651,99,cs),
(651,500,l),
(422,500,l),
(422,-29,l),
(422,-121,o),
(241,-109,o),
(102,-46,c),
(104,-173,l),
(152,-185,o),
(241,-200,o),
(346,-200,cs)
);
},
{
closed = 1;
nodes = (
(383,-12,o),
(459,41,o),
(474,163,c),
(422,176,l),
(422,139,o),
(393,100,o),
(357,100,cs),
(309,100,o),
(291,121,o),
(291,146,cs),
(291,352,ls),
(291,377,o),
(309,398,o),
(357,398,cs),
(393,398,o),
(422,359,o),
(422,322,c),
(474,335,l),
(459,457,o),
(383,510,o),
(292,510,cs),
(123,510,o),
(30,427,o),
(30,256,cs),
(30,62,o),
(123,-12,o),
(292,-12,cs)
);
}
);
width = 691;
}
);
unicode = 103;
}
{
glyphname = h;
layers = (
{
layerId = "CA145713-800E-4AD6-B2AC-DB97E56B9903";
shapes = (
{
closed = 1;
nodes = (
(244,500,l),
(244,687,l),
(45,687,l),
(45,0,l),
(244,0,l)
);
},
{
closed = 1;
nodes = (
(244,387,l),
(244,412,o),
(273,433,o),
(309,433,cs),
(346,433,o),
(375,412,o),
(375,387,cs),
(375,353,l),
(374,0,l),
(573,0,l),
(573,304,ls),
(573,433,o),
(505,517,o),
(309,517,cs),
(244,517,o),
(199,500,o),
(150,451,c)
);
}
);
width = 613;
}
);
unicode = 104;
}
{
glyphname = i;
layers = (
{
layerId = "CA145713-800E-4AD6-B2AC-DB97E56B9903";
shapes = (
{
closed = 1;
nodes = (
(249,0,l),
(249,500,l),
(49,500,l),
(49,0,l)
);
},
{
closed = 1;
nodes = (
(214,557,o),
(267,595,o),
(267,644,cs),
(267,692,o),
(214,731,o),
(149,731,cs),
(83,731,o),
(30,692,o),
(30,644,cs),
(30,595,o),
(83,557,o),
(149,557,cs)
);
}
);
width = 297;
}
);
unicode = 105;
}
{
color = 4;
glyphname = j;
layers = (
{
layerId = "CA145713-800E-4AD6-B2AC-DB97E56B9903";
shapes = (
{
closed = 1;
nodes = (
(341,24,l),
(341,500,l),
(111,500,l),
(111,24,l)
);
},
{
closed = 1;
nodes = (
(46,-181,o),
(87,-181,o),
(128,-181,cs),
(293,-181,o),
(344,-92,o),
(343,24,c),
(111,24,l),
(112,-12,ls),
(114,-77,o),
(60,-80,o),
(5,-80,c),
(5,-181,l)
);
},
{
closed = 1;
nodes = (
(285,557,o),
(333,599,o),
(333,652,cs),
(333,704,o),
(285,747,o),
(227,747,cs),
(167,747,o),
(119,704,o),
(119,652,cs),
(119,599,o),
(167,557,o),
(227,557,cs)
);
}
);
width = 388;
}
);
unicode = 106;
}
{
glyphname = k;
layers = (
{
layerId = "CA145713-800E-4AD6-B2AC-DB97E56B9903";
shapes = (
{
closed = 1;
nodes = (
(320,210,l),
(558,503,l),
(437,503,l),
(199,210,l)
);
},
{
closed = 1;
nodes = (
(550,-8,o),
(589,-3,o),
(589,-3,c),
(589,79,l),
(455,79,o),
(463,210,o),
(355,267,c),
(337,272,o),
(271,233,o),
(246,233,c),
(246,164,l),
(319,164,o),
(299,-8,o),
(528,-8,cs)
);
},
{
closed = 1;
nodes = (
(245,0,l),
(245,700,l),
(45,700,l),
(45,0,l)
);
}
);
width = 609;
}
);
unicode = 107;
}
{
glyphname = l;
layers = (
{
layerId = "CA145713-800E-4AD6-B2AC-DB97E56B9903";
shapes = (
{
closed = 1;
nodes = (
(230,0,l),
(230,700,l),
(30,700,l),
(30,0,l)
);
}
);
width = 260;
}
);
unicode = 108;
}
{
glyphname = m;
layers = (
{
layerId = "CA145713-800E-4AD6-B2AC-DB97E56B9903";
shapes = (
{
closed = 1;
nodes = (
(244,500,l),
(45,500,l),
(45,0,l),
(244,0,l)
);
},
{
closed = 1;
nodes = (
(244,322,l),
(244,359,o),
(273,398,o),
(309,398,cs),
(363,398,o),
(375,360,o),
(375,335,cs),
(374,0,l),
(573,0,l),
(573,297,ls),
(573,426,o),
(513,510,o),
(374,510,cs),
(283,510,o),
(207,457,o),
(192,335,c)
);
},
{
closed = 1;
nodes = (
(573,297,l),
(573,354,o),
(599,398,o),
(639,398,cs),
(686,398,o),
(705,367,o),
(705,335,cs),
(704,0,l),
(903,0,l),
(903,297,ls),
(903,426,o),
(843,510,o),
(704,510,cs),
(613,510,o),
(539,457,o),
(513,368,c)
);
}
);
width = 938;
}
);
unicode = 109;
}
{
glyphname = n;
kernLeft = n;
kernRight = n;
layers = (
{
anchors = (
{
name = bottom;
pos = (337,0);
},
{
name = top;
pos = (337,500);
}
);
layerId = "CA145713-800E-4AD6-B2AC-DB97E56B9903";
shapes = (
{
closed = 1;
nodes = (
(633,0,l),
(633,297,ls),
(633,426,o),
(575,510,o),
(431,510,cs),
(313,510,o),
(236,454,o),
(222,335,c),
(274,322,l),
(274,354,o),
(297,398,o),
(344,398,cs),
(380,398,o),
(405,371,o),
(405,341,cs),
(405,0,l)
);
},
{
closed = 1;
nodes = (
(274,0,l),
(274,500,l),
(45,500,l),
(45,0,l)
);
}
);
width = 673;
}
);
unicode = 110;
}
{
glyphname = o;
layers = (
{
layerId = "CA145713-800E-4AD6-B2AC-DB97E56B9903";
shapes = (
{
closed = 1;
nodes = (
(549,-15,o),
(666,104,o),
(666,251,cs),
(666,398,o),
(549,517,o),
(353,517,cs),
(157,517,o),
(40,398,o),
(40,251,cs),
(40,104,o),
(157,-15,o),
(353,-15,cs)
);
},
{
closed = 1;
nodes = (
(317,61,o),
(288,81,o),
(288,106,cs),
(288,387,ls),
(288,412,o),
(317,433,o),
(353,433,cs),
(390,433,o),
(419,412,o),
(419,387,cs),
(419,106,ls),
(419,81,o),
(390,61,o),
(353,61,cs)
);
}
);
width = 706;
}
);
unicode = 111;
}
{
glyphname = p;
layers = (
{
layerId = "CA145713-800E-4AD6-B2AC-DB97E56B9903";
shapes = (
{
closed = 1;
nodes = (
(229,-187,l),
(229,0,l),
(279,0,ls),
(473,0,o),
(598,95,o),
(598,247,cs),
(598,426,o),
(473,500,o),
(279,500,cs),
(30,500,l),
(30,-187,l)
);
},
{
closed = 1;
nodes = (
(229,417,l),
(266,417,ls),
(349,417,o),
(377,317,o),
(377,247,cs),
(377,172,o),
(332,87,o),
(262,87,cs),
(229,87,l)
);
}
);
width = 638;
}
);
unicode = 112;
}
{
color = 4;
glyphname = q;
layers = (
{
layerId = "CA145713-800E-4AD6-B2AC-DB97E56B9903";
shapes = (
{
closed = 1;
nodes = (
(622,-187,l),
(622,500,l),
(349,500,ls),
(125,500,o),
(0,426,o),
(0,247,cs),
(0,95,o),
(125,0,o),
(349,0,cs),
(393,0,l),
(393,-187,l)
);
},
{
closed = 1;
nodes = (
(296,87,o),
(251,172,o),
(251,247,cs),
(251,317,o),
(279,417,o),
(362,417,cs),
(393,417,l),
(393,87,l),
(366,87,ls)
);
}
);
width = 637;
}
);
unicode = 113;
}
{
color = 4;
glyphname = r;
layers = (
{
layerId = "CA145713-800E-4AD6-B2AC-DB97E56B9903";
shapes = (
{
closed = 1;
nodes = (
(270,0,l),
(270,500,l),
(40,500,l),
(40,0,l)
);
},
{
closed = 1;
nodes = (
(270,377,o),
(418,402,o),
(480,390,c),
(478,508,l),
(399,519,o),
(290,500,o),
(246,365,c),
(270,249,l)
);
}
);
width = 490;
}
);
unicode = 114;
}
{
glyphname = s;
layers = (
{
layerId = "CA145713-800E-4AD6-B2AC-DB97E56B9903";
shapes = (
{
closed = 1;
nodes = (
(445,-15,o),
(526,59,o),
(526,154,cs),
(526,347,o),
(258,347,o),
(258,398,cs),
(258,428,o),
(283,440,o),
(321,440,cs),
(372,440,o),
(430,414,o),
(454,399,c),
(499,479,l),
(458,494,o),
(388,517,o),
(301,517,cs),
(147,517,o),
(44,459,o),
(44,347,cs),
(44,184,o),
(313,221,o),
(313,118,cs),
(313,91,o),
(288,69,o),
(240,69,cs),
(191,69,o),
(124,94,o),
(81,122,c),
(30,33,l),
(74,18,o),
(176,-15,o),
(269,-15,cs)
);
}
);
width = 556;
}
);
unicode = 115;
}
{
color = 4;
glyphname = t;
layers = (
{
layerId = "CA145713-800E-4AD6-B2AC-DB97E56B9903";
shapes = (
{
closed = 1;
nodes = (
(389,-15,l),
(389,61,l),
(334,61,o),
(282,80,o),
(282,137,cs),
(282,387,l),
(51,168,l),
(51,50,o),
(102,-15,o),
(266,-15,cs)
);
},
{
closed = 1;
nodes = (
(281,168,l),
(281,679,l),
(51,632,l),
(51,168,l)
);
},
{
closed = 1;
nodes = (
(373,427,l),
(373,500,l),
(10,500,l),
(10,427,l)
);
}
);
width = 409;
}
);
unicode = 116;
}
{
glyphname = u;
layers = (
{
layerId = "CA145713-800E-4AD6-B2AC-DB97E56B9903";
shapes = (
{
closed = 1;
nodes = (
(340,-10,o),
(436,43,o),
(451,165,c),
(399,178,l),
(399,141,o),
(370,102,o),
(334,102,cs),
(286,102,o),
(268,123,o),
(268,148,cs),
(269,500,l),
(40,500,l),
(40,203,ls),
(40,74,o),
(94,-10,o),
(233,-10,cs)
);
},
{
closed = 1;
nodes = (
(628,0,l),
(628,500,l),
(399,500,l),
(399,0,l)
);
}
);
width = 673;
}
);
unicode = 117;
}
{
glyphname = v;
layers = (
{
layerId = "CA145713-800E-4AD6-B2AC-DB97E56B9903";
shapes = (
{
closed = 1;
nodes = (
(376,0,l),
(583,500,l),
(474,500,l),
(350,189,l),
(369,189,l),
(252,500,l),
(10,500,l),
(230,0,l)
);
}
);
width = 593;
}
);
unicode = 118;
}
{
glyphname = w;
layers = (
{
layerId = "CA145713-800E-4AD6-B2AC-DB97E56B9903";
shapes = (
{
closed = 1;
nodes = (
(339,0,l),
(447,294,l),
(416,294,l),
(531,0,l),
(651,0,l),
(836,500,l),
(723,500,l),
(606,172,l),
(652,172,l),
(530,500,l),
(415,500,l),
(299,172,l),
(340,172,l),
(217,500,l),
(10,500,l),
(207,0,l)
);
}
);
width = 846;
}
);
unicode = 119;
}
{
glyphname = x;
layers = (
{
layerId = "CA145713-800E-4AD6-B2AC-DB97E56B9903";
shapes = (
{
closed = 1;
nodes = (
(555,0,l),
(234,500,l),
(14,500,l),
(343,0,l)
);
},
{
closed = 1;
nodes = (
(116,0,l),
(298,281,l),
(232,349,l),
(10,0,l)
);
},
{
closed = 1;
nodes = (
(536,500,l),
(430,500,l),
(264,261,l),
(329,194,l)
);
}
);
width = 565;
}
);
unicode = 120;
}
{
glyphname = y;
layers = (
{
layerId = "CA145713-800E-4AD6-B2AC-DB97E56B9903";
shapes = (
{
closed = 1;
nodes = (
(233,-196,o),
(320,-136,o),
(376,0,cs),
(583,500,l),
(474,500,l),
(305,89,ls),
(242,-65,o),
(168,-89,o),
(50,-78,c),
(52,-196,l)
);
},
{
closed = 1;
nodes = (
(366,173,l),
(242,500,l),
(10,500,l),
(282,-33,l)
);
}
);
width = 593;
}
);
unicode = 121;
}
{
glyphname = z;
layers = (
{
layerId = "CA145713-800E-4AD6-B2AC-DB97E56B9903";
shapes = (
{
closed = 1;
nodes = (
(249,0,l),
(427,500,l),
(212,500,l),
(30,0,l)
);
},
{
closed = 1;
nodes = (
(425,0,l),
(425,92,l),
(225,92,l),
(225,0,l)
);
},
{
closed = 1;
nodes = (
(219,418,l),
(219,500,l),
(42,500,l),
(42,418,l)
);
}
);
width = 457;
}
);
unicode = 122;
}
{
glyphname = exclamdown;
layers = (
{
layerId = "CA145713-800E-4AD6-B2AC-DB97E56B9903";
shapes = (
{
closed = 1;
nodes = (
(60,-200,l),
(305,-200,l),
(275,268,l),
(90,268,l)
);
},
{
closed = 1;
nodes = (
(137,502,o),
(100,465,o),
(100,419,cs),
(100,373,o),
(137,336,o),
(183,336,cs),
(229,336,o),
(266,373,o),
(266,419,cs),
(266,465,o),
(229,502,o),
(183,502,cs)
);
}
);
width = 365;
}
);
unicode = 161;
}
{
glyphname = brokenbar;
layers = (
{
layerId = "CA145713-800E-4AD6-B2AC-DB97E56B9903";
shapes = (
{
closed = 1;
nodes = (
(115,345,l),
(115,705,l),
(30,705,l),
(30,345,l)
);
},
{
closed = 1;
nodes = (
(115,-153,l),
(115,207,l),
(30,207,l),
(30,-153,l)
);
}
);
width = 145;
}
);
unicode = 166;
}
{
glyphname = dieresis;
layers = (
{
layerId = "CA145713-800E-4AD6-B2AC-DB97E56B9903";
shapes = (
{
closed = 1;
nodes = (
(300,558,o),
(328,586,o),
(328,621,cs),
(328,656,o),
(300,684,o),
(265,684,cs),
(230,684,o),
(202,656,o),
(202,621,cs),
(202,586,o),
(230,558,o),
(265,558,cs)
);
},
{
closed = 1;
nodes = (
(98,558,o),
(126,586,o),
(126,621,cs),
(126,656,o),
(98,684,o),
(63,684,cs),
(28,684,o),
(0,656,o),
(0,621,cs),
(0,586,o),
(28,558,o),
(63,558,cs)
);
}
);
width = 328;
}
);
unicode = 168;
}
{
glyphname = guillemetleft;
layers = (
{
layerId = "CA145713-800E-4AD6-B2AC-DB97E56B9903";
shapes = (
{
closed = 1;
nodes = (
(154,274,l),
(275,493,l),
(199,493,l),
(30,304,l),
(30,244,l),
(199,55,l),
(275,55,l)
);
},
{
closed = 1;
nodes = (
(387,274,l),
(508,493,l),
(432,493,l),
(263,304,l),
(263,244,l),
(432,55,l),
(508,55,l)
);
}
);
width = 538;
}
);
unicode = 171;
}
{
glyphname = macron;
layers = (
{
layerId = "CA145713-800E-4AD6-B2AC-DB97E56B9903";
shapes = (
{
closed = 1;
nodes = (
(352,560,l),
(352,619,l),
(0,619,l),
(0,560,l)
);
}
);
width = 352;
}
);
unicode = 175;
}
{
glyphname = acute;
layers = (
{
layerId = "CA145713-800E-4AD6-B2AC-DB97E56B9903";
shapes = (
{
closed = 1;
nodes = (
(99,565,l),
(265,692,l),
(120,692,l),
(0,564,l)
);
}
);
width = 265;
}
);
unicode = 180;
}
{
glyphname = periodcentered;
layers = (
{
layerId = "CA145713-800E-4AD6-B2AC-DB97E56B9903";
shapes = (
{
closed = 1;
nodes = (
(189,227,o),
(226,264,o),
(226,310,cs),
(226,356,o),
(189,393,o),
(143,393,cs),
(97,393,o),
(60,356,o),
(60,310,cs),
(60,264,o),
(97,227,o),
(143,227,cs)
);
}
);
width = 286;
}
);
unicode = 183;
}
{
glyphname = cedilla;
layers = (
{
layerId = "CA145713-800E-4AD6-B2AC-DB97E56B9903";
shapes = (
{
closed = 1;
nodes = (
(151,-190,o),
(196,-163,o),
(196,-119,cs),
(196,-87,o),
(166,-55,o),
(118,-50,c),
(144,3,l),
(86,3,l),
(40,-79,l),
(81,-79,o),
(119,-90,o),
(119,-114,cs),
(119,-132,o),
(97,-136,o),
(81,-136,cs),
(61,-136,o),
(44,-133,o),
(21,-127,c),
(0,-174,l),
(34,-184,o),
(68,-190,o),
(103,-190,cs)
);
}
);
width = 196;
}
);
unicode = 184;
}
{
glyphname = guillemetright;
layers = (
{
layerId = "CA145713-800E-4AD6-B2AC-DB97E56B9903";
shapes = (
{
closed = 1;
nodes = (
(339,55,l),
(508,244,l),
(508,304,l),
(339,493,l),
(263,493,l),
(384,274,l),
(263,55,l)
);
},
{
closed = 1;
nodes = (
(106,55,l),
(275,244,l),
(275,304,l),
(106,493,l),
(30,493,l),
(151,274,l),
(30,55,l)
);
}
);
width = 528;
}
);
unicode = 187;
}
{
glyphname = onequarter;
layers = (
{
layerId = "CA145713-800E-4AD6-B2AC-DB97E56B9903";
shapes = (
{
closed = 1;
nodes = (
(106,0,l),
(641,700,l),
(565,700,l),
(30,0,l)
);
},
{
closed = 1;
nodes = (
(243,336,l),
(243,700,l),
(77,700,l),
(77,336,l)
);
},
{
closed = 1;
nodes = (
(152,643,l),
(152,700,l),
(41,700,l),
(41,643,l)
);
},
{
closed = 1;
nodes = (
(656,0,l),
(656,94,l),
(702,94,l),
(702,157,l),
(656,157,l),
(656,365,l),
(491,365,l),
(307,152,l),
(307,94,l),
(491,94,l),
(491,0,l)
);
},
{
closed = 1;
nodes = (
(543,335,l),
(491,339,l),
(491,157,l),
(359,157,l),
(370,134,l)
);
}
);
width = 732;
}
);
unicode = 188;
}
{
glyphname = onehalf;
layers = (
{
layerId = "CA145713-800E-4AD6-B2AC-DB97E56B9903";
shapes = (
{
closed = 1;
nodes = (
(106,0,l),
(641,700,l),
(565,700,l),
(30,0,l)
);
},
{
closed = 1;
nodes = (
(577,0,l),
(579,122,o),
(729,179,o),
(729,261,cs),
(729,335,o),
(674,377,o),
(550,377,cs),
(490,377,o),
(443,360,o),
(415,349,c),
(446,287,l),
(462,298,o),
(515,316,o),
(536,316,cs),
(562,316,o),
(579,308,o),
(579,286,cs),
(579,235,o),
(411,141,o),
(411,0,c)
);
},
{
closed = 1;
nodes = (
(720,0,l),
(720,66,l),
(559,66,l),
(559,0,l)
);
},
{
closed = 1;
nodes = (
(243,336,l),
(243,700,l),
(77,700,l),
(77,336,l)
);
},
{
closed = 1;
nodes = (
(152,643,l),
(152,700,l),
(41,700,l),
(41,643,l)
);
}
);
width = 759;
}
);
unicode = 189;
}
{
glyphname = threequarters;
layers = (
{
layerId = "CA145713-800E-4AD6-B2AC-DB97E56B9903";
shapes = (
{
closed = 1;
nodes = (
(231,0,l),
(766,700,l),
(690,700,l),
(155,0,l)
);
},
{
closed = 1;
nodes = (
(277,643,l),
(277,700,l),
(166,700,l),
(166,643,l)
);
},
{
closed = 1;
nodes = (
(781,0,l),
(781,94,l),
(827,94,l),
(827,157,l),
(781,157,l),
(781,365,l),
(616,365,l),
(432,152,l),
(432,94,l),
(616,94,l),
(616,0,l)
);
},
{
closed = 1;
nodes = (
(668,335,l),
(616,339,l),
(616,157,l),
(484,157,l),
(495,134,l)
);
},
{
closed = 1;
nodes = (
(327,335,o),
(408,380,o),
(408,466,cs),
(408,546,o),
(324,579,o),
(249,579,cs),
(237,579,o),
(225,578,o),
(212,576,c),
(247,550,l),
(368,648,l),
(368,706,l),
(71,705,l),
(71,648,l),
(274,648,l),
(264,681,l),
(121,568,l),
(121,518,l),
(215,518,o),
(237,487,o),
(237,445,cs),
(237,405,o),
(208,387,o),
(172,387,cs),
(131,387,o),
(88,406,o),
(61,445,c),
(30,376,l),
(74,349,o),
(140,335,o),
(225,335,cs)
);
}
);
width = 857;
}
);
unicode = 190;
}
{
glyphname = questiondown;
layers = (
{
layerId = "CA145713-800E-4AD6-B2AC-DB97E56B9903";
shapes = (
{
closed = 1;
nodes = (
(316,295,l),
(320,282,o),
(322,270,o),
(322,259,cs),
(322,127,o),
(40,210,o),
(40,-11,cs),
(40,-147,o),
(186,-200,o),
(345,-200,cs),
(476,-200,o),
(564,-164,o),
(641,-101,c),
(582,14,l),
(531,-50,o),
(458,-90,o),
(391,-90,cs),
(333,-90,o),
(291,-60,o),
(291,-15,cs),
(291,74,o),
(455,49,o),
(455,214,cs),
(455,237,o),
(449,264,o),
(436,295,c)
);
},
{
closed = 1;
nodes = (
(314,523,o),
(277,486,o),
(277,440,cs),
(277,394,o),
(314,357,o),
(360,357,cs),
(406,357,o),
(443,394,o),
(443,440,cs),
(443,486,o),
(406,523,o),
(360,523,cs)
);
}
);
width = 681;
}
);
unicode = 191;
}
{
glyphname = circumflex;
layers = (
{
layerId = "CA145713-800E-4AD6-B2AC-DB97E56B9903";
shapes = (
{
closed = 1;
nodes = (
(84,565,l),
(219,676,l),
(133,676,l),
(268,565,l),
(352,564,l),
(223,692,l),
(129,692,l),
(0,564,l)
);
}
);
width = 352;
}
);
unicode = 710;
}
{
glyphname = caron;
layers = (
{
layerId = "CA145713-800E-4AD6-B2AC-DB97E56B9903";
shapes = (
{
closed = 1;
nodes = (
(223,564,l),
(352,692,l),
(268,691,l),
(133,580,l),
(219,580,l),
(84,691,l),
(0,692,l),
(129,564,l)
);
}
);
width = 352;
}
);
unicode = 711;
}
{
glyphname = breve;
layers = (
{
layerId = "CA145713-800E-4AD6-B2AC-DB97E56B9903";
shapes = (
{
closed = 1;
nodes = (
(202,553,o),
(272,578,o),
(290,689,c),
(229,688,l),
(216,648,o),
(187,626,o),
(145,626,cs),
(103,626,o),
(74,648,o),
(61,688,c),
(0,689,l),
(18,578,o),
(88,553,o),
(145,553,cs)
);
}
);
width = 290;
}
);
unicode = 728;
}
{
glyphname = dotaccent;
layers = (
{
layerId = "CA145713-800E-4AD6-B2AC-DB97E56B9903";
shapes = (
{
closed = 1;
nodes = (
(98,558,o),
(126,586,o),
(126,621,cs),
(126,656,o),
(98,684,o),
(63,684,cs),
(28,684,o),
(0,656,o),
(0,621,cs),
(0,586,o),
(28,558,o),
(63,558,cs)
);
}
);
width = 126;
}
);
unicode = 729;
}
{
glyphname = ring;
layers = (
{
layerId = "CA145713-800E-4AD6-B2AC-DB97E56B9903";
shapes = (
{
closed = 1;
nodes = (
(137,538,o),
(177,578,o),
(177,627,cs),
(177,676,o),
(137,715,o),
(88,715,cs),
(39,715,o),
(0,676,o),
(0,627,cs),
(0,578,o),
(39,538,o),
(88,538,cs)
);
},
{
closed = 1;
nodes = (
(67,588,o),
(50,605,o),
(50,628,cs),
(50,649,o),
(67,666,o),
(89,666,cs),
(111,666,o),
(128,649,o),
(128,628,cs),
(128,605,o),
(111,588,o),
(89,588,cs)
);
}
);
width = 177;
}
);
unicode = 730;
}
{
glyphname = ogonek;
layers = (
{
layerId = "CA145713-800E-4AD6-B2AC-DB97E56B9903";
shapes = (
{
closed = 1;
nodes = (
(92,-190,o),
(115,-183,o),
(137,-171,c),
(137,-96,l),
(129,-104,o),
(115,-109,o),
(102,-109,cs),
(92,-109,o),
(77,-97,o),
(77,-79,cs),
(77,-49,o),
(102,-35,o),
(130,0,c),
(87,0,l),
(49,-24,o),
(0,-63,o),
(0,-115,cs),
(0,-168,o),
(40,-190,o),
(76,-190,cs)
);
}
);
width = 137;
}
);
unicode = 731;
}
{
glyphname = tilde;
layers = (
{
layerId = "CA145713-800E-4AD6-B2AC-DB97E56B9903";
shapes = (
{
closed = 1;
nodes = (
(62,575,l),
(79,629,o),
(121,628,o),
(225,577,cs),
(295,542,o),
(414,526,o),
(458,679,c),
(396,678,l),
(379,624,o),
(337,625,o),
(232,676,cs),
(163,711,o),
(44,727,o),
(0,574,c)
);
}
);
width = 458;
}
);
unicode = 732;
}
{
glyphname = hungarumlaut;
layers = (
{
layerId = "CA145713-800E-4AD6-B2AC-DB97E56B9903";
shapes = (
{
closed = 1;
nodes = (
(219,565,l),
(344,692,l),
(224,692,l),
(145,564,l)
);
},
{
closed = 1;
nodes = (
(74,565,l),
(199,692,l),
(79,692,l),
(0,564,l)
);
}
);
width = 344;
}
);
unicode = 733;
}
{
glyphname = quoteleft;
layers = (
{
layerId = "CA145713-800E-4AD6-B2AC-DB97E56B9903";
shapes = (
{
closed = 1;
nodes = (
(82,771,o),
(40,727,o),
(40,648,cs),
(40,579,o),
(82,545,o),
(130,545,cs),
(176,545,o),
(213,582,o),
(213,628,cs),
(213,674,o),
(176,711,o),
(130,711,cs),
(126,711,o),
(122,711,o),
(118,710,c),
(116,720,o),
(115,731,o),
(115,742,cs),
(115,760,o),
(118,778,o),
(122,792,c)
);
}
);
width = 223;
}
);
unicode = 8216;
}
{
glyphname = quoteright;
layers = (
{
layerId = "CA145713-800E-4AD6-B2AC-DB97E56B9903";
shapes = (
{
closed = 1;
nodes = (
(141,620,o),
(183,664,o),
(183,743,cs),
(183,812,o),
(141,846,o),
(93,846,cs),
(47,846,o),
(10,809,o),
(10,763,cs),
(10,717,o),
(47,680,o),
(93,680,cs),
(97,680,o),
(101,680,o),
(105,681,c),
(107,671,o),
(108,660,o),
(108,649,cs),
(108,631,o),
(105,613,o),
(101,599,c)
);
}
);
width = 223;
}
);
unicode = 8217;
}
{
glyphname = quotedblleft;
layers = (
{
layerId = "CA145713-800E-4AD6-B2AC-DB97E56B9903";
shapes = (
{
closed = 1;
nodes = (
(389,600,o),
(426,637,o),
(426,683,cs),
(426,729,o),
(389,766,o),
(343,766,cs),
(339,766,o),
(335,766,o),
(331,765,c),
(329,775,o),
(328,786,o),
(328,797,cs),
(328,815,o),
(331,833,o),
(335,847,c),
(295,826,o),
(253,782,o),
(253,703,cs),
(253,634,o),
(295,600,o),
(343,600,cs)
);
},
{
closed = 1;
nodes = (
(176,600,o),
(213,637,o),
(213,683,cs),
(213,729,o),
(176,766,o),
(130,766,cs),
(126,766,o),
(122,766,o),
(118,765,c),
(116,775,o),
(115,786,o),
(115,797,cs),
(115,815,o),
(118,833,o),
(122,847,c),
(82,826,o),
(40,782,o),
(40,703,cs),
(40,634,o),
(82,600,o),
(130,600,cs)
);
}
);
width = 436;
}
);
unicode = 8220;
}
{
glyphname = quotedblright;
layers = (
{
layerId = "CA145713-800E-4AD6-B2AC-DB97E56B9903";
shapes = (
{
closed = 1;
nodes = (
(354,566,o),
(396,610,o),
(396,689,cs),
(396,758,o),
(354,792,o),
(306,792,cs),
(260,792,o),
(223,755,o),
(223,709,cs),
(223,663,o),
(260,626,o),
(306,626,cs),
(310,626,o),
(314,626,o),
(318,627,c),
(320,617,o),
(321,606,o),
(321,595,cs),
(321,577,o),
(318,559,o),
(314,545,c)
);
},
{
closed = 1;
nodes = (
(141,566,o),
(183,610,o),
(183,689,cs),
(183,758,o),
(141,792,o),
(93,792,cs),
(47,792,o),
(10,755,o),
(10,709,cs),
(10,663,o),
(47,626,o),
(93,626,cs),
(97,626,o),
(101,626,o),
(105,627,c),
(107,617,o),
(108,606,o),
(108,595,cs),
(108,577,o),
(105,559,o),
(101,545,c)
);
}
);
width = 436;
}
);
unicode = 8221;
}
{
glyphname = bullet;
layers = (
{
layerId = "CA145713-800E-4AD6-B2AC-DB97E56B9903";
shapes = (
{
closed = 1;
nodes = (
(315,110,o),
(383,178,o),
(383,261,cs),
(383,345,o),
(315,413,o),
(231,413,cs),
(148,413,o),
(80,345,o),
(80,261,cs),
(80,178,o),
(148,110,o),
(231,110,cs)
);
}
);
width = 463;
}
);
unicode = 8226;
}
{
glyphname = guilsinglleft;
layers = (
{
layerId = "CA145713-800E-4AD6-B2AC-DB97E56B9903";
shapes = (
{
closed = 1;
nodes = (
(154,274,l),
(275,493,l),
(199,493,l),
(30,304,l),
(30,244,l),
(199,55,l),
(275,55,l)
);
}
);
width = 305;
}
);
unicode = 8249;
}
{
glyphname = guilsinglright;
layers = (
{
layerId = "CA145713-800E-4AD6-B2AC-DB97E56B9903";
shapes = (
{
closed = 1;
nodes = (
(106,55,l),
(275,244,l),
(275,304,l),
(106,493,l),
(30,493,l),
(151,274,l),
(30,55,l)
);
}
);
width = 305;
}
);
unicode = 8250;
}
{
glyphname = fraction;
layers = (
{
layerId = "CA145713-800E-4AD6-B2AC-DB97E56B9903";
shapes = (
{
closed = 1;
nodes = (
(76,0,l),
(611,700,l),
(535,700,l),
(0,0,l)
);
}
);
width = 611;
}
);
unicode = 8260;
}
{
glyphname = oneeighth;
layers = (
{
layerId = "CA145713-800E-4AD6-B2AC-DB97E56B9903";
shapes = (
{
closed = 1;
nodes = (
(106,0,l),
(641,700,l),
(565,700,l),
(30,0,l)
);
},
{
closed = 1;
nodes = (
(243,336,l),
(243,700,l),
(77,700,l),
(77,336,l)
);
},
{
closed = 1;
nodes = (
(152,643,l),
(152,700,l),
(41,700,l),
(41,643,l)
);
},
{
closed = 1;
nodes = (
(715,-5,o),
(795,37,o),
(795,105,cs),
(795,143,o),
(770,180,o),
(726,197,c),
(747,213,o),
(761,238,o),
(761,265,cs),
(761,335,o),
(689,377,o),
(578,377,cs),
(451,377,o),
(396,329,o),
(396,265,cs),
(396,238,o),
(410,213,o),
(431,197,c),
(387,180,o),
(362,143,o),
(362,105,cs),
(362,37,o),
(442,-5,o),
(579,-5,cs)
);
},
{
closed = 1;
nodes = (
(552,49,o),
(533,72,o),
(533,107,cs),
(533,143,o),
(551,164,o),
(579,164,cs),
(607,164,o),
(624,143,o),
(624,107,cs),
(624,72,o),
(604,49,o),
(579,49,cs)
);
},
{
closed = 1;
nodes = (
(553,218,o),
(537,242,o),
(537,267,cs),
(537,268,ls),
(537,288,o),
(539,320,o),
(579,320,cs),
(615,320,o),
(619,288,o),
(619,268,cs),
(619,267,ls),
(619,242,o),
(603,218,o),
(579,218,cs)
);
}
);
width = 825;
}
);
unicode = 8539;
}
{
glyphname = threeeighths;
layers = (
{
layerId = "CA145713-800E-4AD6-B2AC-DB97E56B9903";
shapes = (
{
closed = 1;
nodes = (
(231,0,l),
(766,700,l),
(690,700,l),
(155,0,l)
);
},
{
closed = 1;
nodes = (
(327,329,o),
(408,374,o),
(408,460,cs),
(408,540,o),
(324,573,o),
(249,573,cs),
(237,573,o),
(225,572,o),
(212,570,c),
(247,544,l),
(368,642,l),
(368,700,l),
(71,699,l),
(71,637,l),
(274,637,l),
(264,675,l),
(121,562,l),
(121,512,l),
(215,512,o),
(237,481,o),
(237,439,cs),
(237,399,o),
(208,381,o),
(172,381,cs),
(131,381,o),
(88,400,o),
(61,439,c),
(30,370,l),
(74,343,o),
(140,329,o),
(225,329,cs)
);
},
{
closed = 1;
nodes = (
(835,-5,o),
(915,37,o),
(915,105,cs),
(915,143,o),
(890,180,o),
(846,197,c),
(867,213,o),
(881,238,o),
(881,265,cs),
(881,335,o),
(809,377,o),
(698,377,cs),
(571,377,o),
(516,329,o),
(516,265,cs),
(516,238,o),
(530,213,o),
(551,197,c),
(507,180,o),
(482,143,o),
(482,105,cs),
(482,37,o),
(562,-5,o),
(699,-5,cs)
);
},
{
closed = 1;
nodes = (
(672,49,o),
(653,72,o),
(653,107,cs),
(653,143,o),
(671,164,o),
(699,164,cs),
(727,164,o),
(744,143,o),
(744,107,cs),
(744,72,o),
(724,49,o),
(699,49,cs)
);
},
{
closed = 1;
nodes = (
(673,218,o),
(657,242,o),
(657,267,cs),
(657,268,ls),
(657,288,o),
(659,320,o),
(699,320,cs),
(735,320,o),
(739,288,o),
(739,268,cs),
(739,267,ls),
(739,242,o),
(723,218,o),
(699,218,cs)
);
}
);
width = 945;
}
);
unicode = 8540;
}
{
glyphname = fiveeighths;
layers = (
{
layerId = "CA145713-800E-4AD6-B2AC-DB97E56B9903";
shapes = (
{
closed = 1;
nodes = (
(230,0,l),
(765,700,l),
(689,700,l),
(154,0,l)
);
},
{
closed = 1;
nodes = (
(839,-5,o),
(919,37,o),
(919,105,cs),
(919,143,o),
(894,180,o),
(850,197,c),
(871,213,o),
(885,238,o),
(885,265,cs),
(885,335,o),
(813,377,o),
(702,377,cs),
(575,377,o),
(520,329,o),
(520,265,cs),
(520,238,o),
(534,213,o),
(555,197,c),
(511,180,o),
(486,143,o),
(486,105,cs),
(486,37,o),
(566,-5,o),
(703,-5,cs)
);
},
{
closed = 1;
nodes = (
(676,49,o),
(657,72,o),
(657,107,cs),
(657,143,o),
(675,164,o),
(703,164,cs),
(731,164,o),
(748,143,o),
(748,107,cs),
(748,72,o),
(728,49,o),
(703,49,cs)
);
},
{
closed = 1;
nodes = (
(677,218,o),
(661,242,o),
(661,267,cs),
(661,268,ls),
(661,288,o),
(663,320,o),
(703,320,cs),
(739,320,o),
(743,288,o),
(743,268,cs),
(743,267,ls),
(743,242,o),
(727,218,o),
(703,218,cs)
);
},
{
closed = 1;
nodes = (
(327,329,o),
(408,374,o),
(408,460,cs),
(408,540,o),
(325,573,o),
(228,573,cs),
(203,573,o),
(171,568,o),
(153,563,c),
(162,535,l),
(162,642,l),
(358,642,l),
(358,699,l),
(75,700,l),
(75,503,l),
(96,509,o),
(119,512,o),
(148,512,cs),
(210,512,o),
(238,481,o),
(238,439,cs),
(238,399,o),
(208,381,o),
(171,381,cs),
(130,381,o),
(89,400,o),
(61,439,c),
(30,370,l),
(73,343,o),
(141,329,o),
(220,329,cs)
);
}
);
width = 949;
}
);
unicode = 8541;
}
{
glyphname = seveneighths;
layers = (
{
layerId = "CA145713-800E-4AD6-B2AC-DB97E56B9903";
shapes = (
{
closed = 1;
nodes = (
(126,0,l),
(661,700,l),
(585,700,l),
(50,0,l)
);
},
{
closed = 1;
nodes = (
(735,-5,o),
(815,37,o),
(815,105,cs),
(815,143,o),
(790,180,o),
(746,197,c),
(767,213,o),
(781,238,o),
(781,265,cs),
(781,335,o),
(709,377,o),
(598,377,cs),
(471,377,o),
(416,329,o),
(416,265,cs),
(416,238,o),
(430,213,o),
(451,197,c),
(407,180,o),
(382,143,o),
(382,105,cs),
(382,37,o),
(462,-5,o),
(599,-5,cs)
);
},
{
closed = 1;
nodes = (
(572,49,o),
(553,72,o),
(553,107,cs),
(553,143,o),
(571,164,o),
(599,164,cs),
(627,164,o),
(644,143,o),
(644,107,cs),
(644,72,o),
(624,49,o),
(599,49,cs)
);
},
{
closed = 1;
nodes = (
(573,218,o),
(557,242,o),
(557,267,cs),
(557,268,ls),
(557,288,o),
(559,320,o),
(599,320,cs),
(635,320,o),
(639,288,o),
(639,268,cs),
(639,267,ls),
(639,242,o),
(623,218,o),
(599,218,cs)
);
},
{
closed = 1;
nodes = (
(237,334,l),
(342,699,l),
(172,699,l),
(72,334,l)
);
},
{
closed = 1;
nodes = (
(177,642,l),
(177,699,l),
(30,699,l),
(30,642,l)
);
}
);
width = 845;
}
);
unicode = 8542;
}
{
glyphname = e.001;
layers = (
{
anchors = (
{
name = bottom;
pos = (343,0);
},
{
name = ogonek;
pos = (596,87);
},
{
name = top;
pos = (343,500);
}
);
layerId = "CA145713-800E-4AD6-B2AC-DB97E56B9903";
shapes = (
{
closed = 1;
nodes = (
(489,-15,o),
(585,50,o),
(617,123,c),
(450,123,l),
(443,68,o),
(409,52,o),
(362,52,cs),
(307,52,o),
(278,81,o),
(278,106,cs),
(278,387,ls),
(278,412,o),
(307,433,o),
(343,433,cs),
(380,433,o),
(409,412,o),
(409,387,cs),
(409,193,l),
(650,193,l),
(654,212,o),
(656,231,o),
(656,251,cs),
(656,398,o),
(539,517,o),
(343,517,cs),
(147,517,o),
(30,398,o),
(30,251,cs),
(30,104,o),
(147,-15,o),
(343,-15,cs)
);
},
{
closed = 1;
nodes = (
(505,193,l),
(505,272,l),
(206,272,l),
(206,193,l)
);
},
{
closed = 1;
nodes = (
(1257,-15,o),
(1323,14,o),
(1384,87,c),
(1271,142,l),
(1241,87,o),
(1177,52,o),
(1130,52,cs),
(1075,52,o),
(1046,81,o),
(1046,106,cs),
(1046,387,ls),
(1046,412,o),
(1075,433,o),
(1111,433,cs),
(1148,433,o),
(1177,412,o),
(1177,387,cs),
(1177,193,l),
(1418,193,l),
(1422,212,o),
(1424,231,o),
(1424,251,cs),
(1424,398,o),
(1307,517,o),
(1111,517,cs),
(915,517,o),
(798,398,o),
(798,251,cs),
(798,104,o),
(915,-15,o),
(1111,-15,cs)
);
},
{
closed = 1;
nodes = (
(1273,193,l),
(1273,272,l),
(974,272,l),
(974,193,l)
);
}
);
width = 686;
}
);
}
{
glyphname = eight.dnom;
layers = (
{
layerId = "CA145713-800E-4AD6-B2AC-DB97E56B9903";
shapes = (
{
closed = 1;
nodes = (
(353,-5,o),
(433,37,o),
(433,105,cs),
(433,143,o),
(408,180,o),
(364,197,c),
(385,213,o),
(399,238,o),
(399,265,cs),
(399,335,o),
(327,377,o),
(216,377,cs),
(89,377,o),
(34,329,o),
(34,265,cs),
(34,238,o),
(48,213,o),
(69,197,c),
(25,180,o),
(0,143,o),
(0,105,cs),
(0,37,o),
(80,-5,o),
(217,-5,cs)
);
},
{
closed = 1;
nodes = (
(190,49,o),
(171,72,o),
(171,107,cs),
(171,143,o),
(189,164,o),
(217,164,cs),
(245,164,o),
(262,143,o),
(262,107,cs),
(262,72,o),
(242,49,o),
(217,49,cs)
);
},
{
closed = 1;
nodes = (
(191,218,o),
(175,242,o),
(175,267,cs),
(175,268,ls),
(175,288,o),
(177,320,o),
(217,320,cs),
(253,320,o),
(257,288,o),
(257,268,cs),
(257,267,ls),
(257,242,o),
(241,218,o),
(217,218,cs)
);
}
);
width = 433;
}
);
}
{
glyphname = eight.numr;
layers = (
{
layerId = "CA145713-800E-4AD6-B2AC-DB97E56B9903";
shapes = (
{
closed = 1;
nodes = (
(353,329,o),
(433,371,o),
(433,439,cs),
(433,477,o),
(408,514,o),
(364,531,c),
(385,547,o),
(399,572,o),
(399,599,cs),
(399,669,o),
(327,711,o),
(216,711,cs),
(89,711,o),
(34,663,o),
(34,599,cs),
(34,572,o),
(48,547,o),
(69,531,c),
(25,514,o),
(0,477,o),
(0,439,cs),
(0,371,o),
(80,329,o),
(217,329,cs)
);
},
{
closed = 1;
nodes = (
(190,383,o),
(171,406,o),
(171,441,cs),
(171,477,o),
(189,498,o),
(217,498,cs),
(245,498,o),
(262,477,o),
(262,441,cs),
(262,406,o),
(242,383,o),
(217,383,cs)
);
},
{
closed = 1;
nodes = (
(191,552,o),
(175,576,o),
(175,601,cs),
(175,602,ls),
(175,622,o),
(177,654,o),
(217,654,cs),
(253,654,o),
(257,622,o),
(257,602,cs),
(257,601,ls),
(257,576,o),
(241,552,o),
(217,552,cs)
);
}
);
width = 433;
}
);
}
{
glyphname = five.dnom;
layers = (
{
layerId = "CA145713-800E-4AD6-B2AC-DB97E56B9903";
shapes = (
{
closed = 1;
nodes = (
(297,-5,o),
(378,40,o),
(378,126,cs),
(378,206,o),
(295,239,o),
(198,239,cs),
(173,239,o),
(141,234,o),
(123,229,c),
(132,201,l),
(132,308,l),
(328,308,l),
(328,365,l),
(45,366,l),
(45,169,l),
(66,175,o),
(89,178,o),
(118,178,cs),
(180,178,o),
(208,147,o),
(208,105,cs),
(208,65,o),
(178,47,o),
(141,47,cs),
(100,47,o),
(59,66,o),
(31,105,c),
(0,36,l),
(43,9,o),
(111,-5,o),
(190,-5,cs)
);
}
);
width = 378;
}
);
}
{
glyphname = five.numr;
layers = (
{
layerId = "CA145713-800E-4AD6-B2AC-DB97E56B9903";
shapes = (
{
closed = 1;
nodes = (
(297,329,o),
(378,374,o),
(378,460,cs),
(378,540,o),
(295,573,o),
(198,573,cs),
(173,573,o),
(141,568,o),
(123,563,c),
(132,535,l),
(132,642,l),
(328,642,l),
(328,699,l),
(45,700,l),
(45,503,l),
(66,509,o),
(89,512,o),
(118,512,cs),
(180,512,o),
(208,481,o),
(208,439,cs),
(208,399,o),
(178,381,o),
(141,381,cs),
(100,381,o),
(59,400,o),
(31,439,c),
(0,370,l),
(43,343,o),
(111,329,o),
(190,329,cs)
);
}
);
width = 378;
}
);
}
{
glyphname = four.dnom;
layers = (
{
layerId = "CA145713-800E-4AD6-B2AC-DB97E56B9903";
shapes = (
{
closed = 1;
nodes = (
(349,0,l),
(349,94,l),
(395,94,l),
(395,157,l),
(349,157,l),
(349,365,l),
(184,365,l),
(0,152,l),
(0,94,l),
(184,94,l),
(184,0,l)
);
},
{
closed = 1;
nodes = (
(236,335,l),
(184,339,l),
(184,157,l),
(52,157,l),
(63,134,l)
);
}
);
width = 395;
}
);
}
{
glyphname = four.numr;
layers = (
{
layerId = "CA145713-800E-4AD6-B2AC-DB97E56B9903";
shapes = (
{
closed = 1;
nodes = (
(349,335,l),
(349,429,l),
(395,429,l),
(395,492,l),
(349,492,l),
(349,700,l),
(184,700,l),
(0,487,l),
(0,429,l),
(184,429,l),
(184,335,l)
);
},
{
closed = 1;
nodes = (
(236,670,l),
(184,674,l),
(184,492,l),
(52,492,l),
(63,469,l)
);
}
);
width = 395;
}
);
}
{
glyphname = newGlyph;
layers = (
{
layerId = "CA145713-800E-4AD6-B2AC-DB97E56B9903";
shapes = (
{
closed = 1;
nodes = (
(-1889,0,l),
(-1354,700,l),
(-1430,700,l),
(-1965,0,l)
);
},
{
closed = 1;
nodes = (
(-419,336,l),
(-417,458,o),
(-267,515,o),
(-267,597,cs),
(-267,671,o),
(-322,713,o),
(-446,713,cs),
(-506,713,o),
(-553,696,o),
(-581,685,c),
(-550,623,l),
(-534,634,o),
(-481,652,o),
(-460,652,cs),
(-434,652,o),
(-417,644,o),
(-417,622,cs),
(-417,571,o),
(-585,477,o),
(-585,336,c)
);
},
{
closed = 1;
nodes = (
(-276,336,l),
(-276,402,l),
(-437,402,l),
(-437,336,l)
);
},
{
closed = 1;
nodes = (
(-658,336,l),
(-658,700,l),
(-824,700,l),
(-824,336,l)
);
},
{
closed = 1;
nodes = (
(-749,643,l),
(-749,700,l),
(-860,700,l),
(-860,643,l)
);
},
{
closed = 1;
nodes = (
(58,329,o),
(139,374,o),
(139,460,cs),
(139,540,o),
(55,573,o),
(-20,573,cs),
(-32,573,o),
(-44,572,o),
(-57,570,c),
(-22,544,l),
(99,642,l),
(99,700,l),
(-198,699,l),
(-198,642,l),
(5,642,l),
(-5,675,l),
(-148,562,l),
(-148,512,l),
(-54,512,o),
(-32,481,o),
(-32,439,cs),
(-32,399,o),
(-61,381,o),
(-97,381,cs),
(-138,381,o),
(-181,400,o),
(-208,439,c),
(-239,370,l),
(-195,343,o),
(-129,329,o),
(-44,329,cs)
);
},
{
closed = 1;
nodes = (
(531,334,l),
(531,428,l),
(577,428,l),
(577,491,l),
(531,491,l),
(531,699,l),
(366,699,l),
(182,486,l),
(182,428,l),
(366,428,l),
(366,334,l)
);
},
{
closed = 1;
nodes = (
(418,669,l),
(366,673,l),
(366,491,l),
(234,491,l),
(245,468,l)
);
},
{
closed = 1;
nodes = (
(918,329,o),
(999,374,o),
(999,460,cs),
(999,540,o),
(916,573,o),
(819,573,cs),
(794,573,o),
(762,568,o),
(744,563,c),
(753,535,l),
(753,642,l),
(949,642,l),
(949,699,l),
(666,700,l),
(666,503,l),
(687,509,o),
(710,512,o),
(739,512,cs),
(801,512,o),
(829,481,o),
(829,439,cs),
(829,399,o),
(799,381,o),
(762,381,cs),
(721,381,o),
(680,400,o),
(652,439,c),
(621,370,l),
(664,343,o),
(732,329,o),
(811,329,cs)
);
},
{
closed = 1;
nodes = (
(1387,329,o),
(1467,376,o),
(1467,446,cs),
(1467,525,o),
(1395,559,o),
(1307,559,cs),
(1250,559,o),
(1209,548,o),
(1174,514,c),
(1205,439,l),
(1197,485,o),
(1193,518,o),
(1193,544,cs),
(1193,599,o),
(1212,650,o),
(1279,650,cs),
(1323,650,o),
(1372,629,o),
(1388,619,c),
(1419,681,l),
(1391,691,o),
(1352,710,o),
(1272,710,cs),
(1119,710,o),
(1034,626,o),
(1034,503,cs),
(1034,381,o),
(1114,329,o),
(1251,329,cs)
);
},
{
closed = 1;
nodes = (
(1225,376,o),
(1205,406,o),
(1205,445,cs),
(1205,446,ls),
(1205,477,o),
(1225,503,o),
(1251,503,cs),
(1279,503,o),
(1296,481,o),
(1296,439,cs),
(1296,399,o),
(1277,376,o),
(1251,376,cs)
);
},
{
closed = 1;
nodes = (
(1688,334,l),
(1793,699,l),
(1623,699,l),
(1523,334,l)
);
},
{
closed = 1;
nodes = (
(1628,642,l),
(1628,699,l),
(1481,699,l),
(1481,642,l)
);
},
{
closed = 1;
nodes = (
(2154,329,o),
(2234,371,o),
(2234,439,cs),
(2234,477,o),
(2209,514,o),
(2165,531,c),
(2186,547,o),
(2200,572,o),
(2200,599,cs),
(2200,669,o),
(2128,711,o),
(2017,711,cs),
(1890,711,o),
(1835,663,o),
(1835,599,cs),
(1835,572,o),
(1849,547,o),
(1870,531,c),
(1826,514,o),
(1801,477,o),
(1801,439,cs),
(1801,371,o),
(1881,329,o),
(2018,329,cs)
);
},
{
closed = 1;
nodes = (
(1991,383,o),
(1972,406,o),
(1972,441,cs),
(1972,477,o),
(1990,498,o),
(2018,498,cs),
(2046,498,o),
(2063,477,o),
(2063,441,cs),
(2063,406,o),
(2043,383,o),
(2018,383,cs)
);
},
{
closed = 1;
nodes = (
(1992,552,o),
(1976,576,o),
(1976,601,cs),
(1976,602,ls),
(1976,622,o),
(1978,654,o),
(2018,654,cs),
(2054,654,o),
(2058,622,o),
(2058,602,cs),
(2058,601,ls),
(2058,576,o),
(2042,552,o),
(2018,552,cs)
);
},
{
closed = 1;
nodes = (
(2592,329,o),
(2676,414,o),
(2676,537,cs),
(2676,659,o),
(2597,710,o),
(2460,710,cs),
(2323,710,o),
(2244,666,o),
(2244,582,cs),
(2244,503,o),
(2315,473,o),
(2403,473,cs),
(2460,473,o),
(2510,491,o),
(2537,526,c),
(2505,601,l),
(2514,554,o),
(2518,521,o),
(2518,496,cs),
(2518,440,o),
(2498,389,o),
(2432,389,cs),
(2377,389,o),
(2324,411,o),
(2309,421,c),
(2278,359,l),
(2306,348,o),
(2349,329,o),
(2438,329,cs)
);
},
{
closed = 1;
nodes = (
(2432,537,o),
(2415,562,o),
(2415,597,cs),
(2415,634,o),
(2434,658,o),
(2460,658,cs),
(2486,658,o),
(2505,635,o),
(2505,601,cs),
(2505,594,ls),
(2505,563,o),
(2486,537,o),
(2460,537,cs)
);
},
{
closed = 1;
nodes = (
(-979,313,o),
(-901,405,o),
(-901,515,cs),
(-901,627,o),
(-979,719,o),
(-1109,719,cs),
(-1240,719,o),
(-1318,627,o),
(-1318,515,cs),
(-1318,404,o),
(-1240,313,o),
(-1109,313,cs)
);
},
{
closed = 1;
nodes = (
(-1134,363,o),
(-1155,378,o),
(-1155,397,cs),
(-1155,627,ls),
(-1155,647,o),
(-1134,663,o),
(-1109,663,cs),
(-1084,663,o),
(-1063,647,o),
(-1063,627,cs),
(-1063,397,ls),
(-1063,378,o),
(-1084,363,o),
(-1109,363,cs)
);
}
);
width = 600;
}
);
}
{
glyphname = nine.dnom;
layers = (
{
layerId = "CA145713-800E-4AD6-B2AC-DB97E56B9903";
shapes = (
{
closed = 1;
nodes = (
(348,-5,o),
(432,80,o),
(432,203,cs),
(432,325,o),
(353,376,o),
(216,376,cs),
(79,376,o),
(0,332,o),
(0,248,cs),
(0,169,o),
(71,139,o),
(159,139,cs),
(216,139,o),
(266,157,o),
(293,192,c),
(261,267,l),
(270,220,o),
(274,187,o),
(274,162,cs),
(274,106,o),
(254,55,o),
(188,55,cs),
(133,55,o),
(80,77,o),
(65,87,c),
(34,25,l),
(62,14,o),
(105,-5,o),
(194,-5,cs)
);
},
{
closed = 1;
nodes = (
(188,203,o),
(171,228,o),
(171,263,cs),
(171,300,o),
(190,324,o),
(216,324,cs),
(242,324,o),
(261,301,o),
(261,267,cs),
(261,260,ls),
(261,229,o),
(242,203,o),
(216,203,cs)
);
}
);
width = 432;
}
);
}
{
glyphname = nine.numr;
layers = (
{
layerId = "CA145713-800E-4AD6-B2AC-DB97E56B9903";
shapes = (
{
closed = 1;
nodes = (
(348,329,o),
(432,414,o),
(432,537,cs),
(432,658,o),
(353,710,o),
(216,710,cs),
(79,710,o),
(0,666,o),
(0,582,cs),
(0,503,o),
(71,473,o),
(159,473,cs),
(216,473,o),
(266,491,o),
(293,526,c),
(261,601,l),
(270,554,o),
(274,521,o),
(274,496,cs),
(274,440,o),
(254,389,o),
(188,389,cs),
(133,389,o),
(80,411,o),
(65,421,c),
(34,359,l),
(62,348,o),
(105,329,o),
(194,329,cs)
);
},
{
closed = 1;
nodes = (
(188,537,o),
(171,562,o),
(171,597,cs),
(171,633,o),
(190,658,o),
(216,658,cs),
(242,658,o),
(261,635,o),
(261,601,cs),
(261,594,ls),
(261,563,o),
(242,537,o),
(216,537,cs)
);
}
);
width = 432;
}
);
}
{
glyphname = one.dnom;
layers = (
{
layerId = "CA145713-800E-4AD6-B2AC-DB97E56B9903";
shapes = (
{
closed = 1;
nodes = (
(202,0,l),
(202,364,l),
(36,364,l),
(36,0,l)
);
},
{
closed = 1;
nodes = (
(111,307,l),
(111,364,l),
(0,364,l),
(0,307,l)
);
}
);
width = 202;
}
);
}
{
glyphname = one.numr;
layers = (
{
layerId = "CA145713-800E-4AD6-B2AC-DB97E56B9903";
shapes = (
{
closed = 1;
nodes = (
(202,336,l),
(202,700,l),
(36,700,l),
(36,336,l)
);
},
{
closed = 1;
nodes = (
(111,643,l),
(111,700,l),
(0,700,l),
(0,643,l)
);
}
);
width = 202;
}
);
}
{
glyphname = seven.dnom;
layers = (
{
layerId = "CA145713-800E-4AD6-B2AC-DB97E56B9903";
shapes = (
{
closed = 1;
nodes = (
(207,0,l),
(312,365,l),
(142,365,l),
(42,0,l)
);
},
{
closed = 1;
nodes = (
(147,309,l),
(147,366,l),
(0,366,l),
(0,309,l)
);
}
);
width = 312;
}
);
}
{
glyphname = seven.numr;
layers = (
{
layerId = "CA145713-800E-4AD6-B2AC-DB97E56B9903";
shapes = (
{
closed = 1;
nodes = (
(237,334,l),
(342,699,l),
(172,699,l),
(72,334,l)
);
},
{
closed = 1;
nodes = (
(177,642,l),
(177,699,l),
(30,699,l),
(30,642,l)
);
}
);
width = 372;
}
);
}
{
glyphname = six.dnom;
layers = (
{
layerId = "CA145713-800E-4AD6-B2AC-DB97E56B9903";
shapes = (
{
closed = 1;
nodes = (
(353,-5,o),
(433,42,o),
(433,112,cs),
(433,191,o),
(361,225,o),
(273,225,cs),
(216,225,o),
(175,214,o),
(140,180,c),
(171,105,l),
(163,151,o),
(159,184,o),
(159,210,cs),
(159,265,o),
(178,316,o),
(245,316,cs),
(289,316,o),
(338,295,o),
(354,285,c),
(385,347,l),
(357,357,o),
(318,376,o),
(238,376,cs),
(85,376,o),
(0,292,o),
(0,169,cs),
(0,47,o),
(80,-5,o),
(217,-5,cs)
);
},
{
closed = 1;
nodes = (
(191,42,o),
(171,72,o),
(171,111,cs),
(171,112,ls),
(171,143,o),
(191,169,o),
(217,169,cs),
(245,169,o),
(262,147,o),
(262,105,cs),
(262,65,o),
(243,42,o),
(217,42,cs)
);
}
);
width = 433;
}
);
}
{
glyphname = six.numr;
layers = (
{
layerId = "CA145713-800E-4AD6-B2AC-DB97E56B9903";
shapes = (
{
closed = 1;
nodes = (
(383,329,o),
(463,376,o),
(463,446,cs),
(463,525,o),
(391,559,o),
(303,559,cs),
(246,559,o),
(205,548,o),
(170,514,c),
(201,439,l),
(193,485,o),
(189,518,o),
(189,544,cs),
(189,599,o),
(208,650,o),
(275,650,cs),
(319,650,o),
(368,629,o),
(384,619,c),
(415,681,l),
(387,691,o),
(348,710,o),
(268,710,cs),
(115,710,o),
(30,626,o),
(30,503,cs),
(30,381,o),
(110,329,o),
(247,329,cs)
);
},
{
closed = 1;
nodes = (
(221,376,o),
(201,406,o),
(201,445,cs),
(201,446,ls),
(201,477,o),
(221,503,o),
(247,503,cs),
(275,503,o),
(292,481,o),
(292,439,cs),
(292,399,o),
(273,376,o),
(247,376,cs)
);
}
);
width = 493;
}
);
}
{
glyphname = three.dnom;
layers = (
{
layerId = "CA145713-800E-4AD6-B2AC-DB97E56B9903";
shapes = (
{
closed = 1;
nodes = (
(297,-5,o),
(378,40,o),
(378,126,cs),
(378,206,o),
(294,239,o),
(219,239,cs),
(207,239,o),
(195,238,o),
(182,236,c),
(217,210,l),
(338,308,l),
(338,366,l),
(41,365,l),
(41,308,l),
(244,308,l),
(234,341,l),
(91,228,l),
(91,178,l),
(185,178,o),
(207,147,o),
(207,105,cs),
(207,65,o),
(178,47,o),
(142,47,cs),
(101,47,o),
(58,66,o),
(31,105,c),
(0,36,l),
(44,9,o),
(110,-5,o),
(195,-5,cs)
);
}
);
width = 378;
}
);
}
{
glyphname = three.numr;
layers = (
{
layerId = "CA145713-800E-4AD6-B2AC-DB97E56B9903";
shapes = (
{
closed = 1;
nodes = (
(247,637,l),
(247,694,l),
(136,694,l),
(136,637,l)
);
},
{
closed = 1;
nodes = (
(297,329,o),
(378,374,o),
(378,460,cs),
(378,540,o),
(294,573,o),
(219,573,cs),
(207,573,o),
(195,572,o),
(182,570,c),
(217,544,l),
(338,642,l),
(338,700,l),
(41,699,l),
(41,642,l),
(244,642,l),
(234,675,l),
(91,562,l),
(91,512,l),
(185,512,o),
(207,481,o),
(207,439,cs),
(207,399,o),
(178,381,o),
(142,381,cs),
(101,381,o),
(58,400,o),
(31,439,c),
(0,370,l),
(44,343,o),
(110,329,o),
(195,329,cs)
);
}
);
width = 378;
}
);
}
{
glyphname = two.dnom;
layers = (
{
layerId = "CA145713-800E-4AD6-B2AC-DB97E56B9903";
shapes = (
{
closed = 1;
nodes = (
(166,0,l),
(168,122,o),
(318,179,o),
(318,261,cs),
(318,335,o),
(263,377,o),
(139,377,cs),
(79,377,o),
(32,360,o),
(4,349,c),
(35,287,l),
(51,298,o),
(104,316,o),
(125,316,cs),
(151,316,o),
(168,308,o),
(168,286,cs),
(168,235,o),
(0,141,o),
(0,0,c)
);
},
{
closed = 1;
nodes = (
(309,0,l),
(309,66,l),
(148,66,l),
(148,0,l)
);
}
);
width = 318;
}
);
}
{
glyphname = two.numr;
layers = (
{
layerId = "CA145713-800E-4AD6-B2AC-DB97E56B9903";
shapes = (
{
closed = 1;
nodes = (
(166,336,l),
(168,458,o),
(318,515,o),
(318,597,cs),
(318,671,o),
(263,713,o),
(139,713,cs),
(79,713,o),
(32,696,o),
(4,685,c),
(35,623,l),
(51,634,o),
(104,652,o),
(125,652,cs),
(151,652,o),
(168,644,o),
(168,622,cs),
(168,571,o),
(0,477,o),
(0,336,c)
);
},
{
closed = 1;
nodes = (
(309,336,l),
(309,402,l),
(148,402,l),
(148,336,l)
);
}
);
width = 318;
}
);
}
{
glyphname = zero.dnom;
layers = (
{
layerId = "CA145713-800E-4AD6-B2AC-DB97E56B9903";
shapes = (
{
closed = 1;
nodes = (
(339,-21,o),
(417,71,o),
(417,181,cs),
(417,293,o),
(339,385,o),
(209,385,cs),
(78,385,o),
(0,293,o),
(0,181,cs),
(0,70,o),
(78,-21,o),
(209,-21,cs)
);
},
{
closed = 1;
nodes = (
(184,29,o),
(163,44,o),
(163,63,cs),
(163,293,ls),
(163,313,o),
(184,329,o),
(209,329,cs),
(234,329,o),
(255,313,o),
(255,293,cs),
(255,63,ls),
(255,44,o),
(234,29,o),
(209,29,cs)
);
}
);
width = 417;
}
);
}
{
glyphname = zero.numr;
layers = (
{
layerId = "CA145713-800E-4AD6-B2AC-DB97E56B9903";
shapes = (
{
closed = 1;
nodes = (
(339,313,o),
(417,405,o),
(417,515,cs),
(417,627,o),
(339,719,o),
(209,719,cs),
(78,719,o),
(0,627,o),
(0,515,cs),
(0,404,o),
(78,313,o),
(209,313,cs)
);
},
{
closed = 1;
nodes = (
(184,363,o),
(163,378,o),
(163,397,cs),
(163,627,ls),
(163,647,o),
(184,663,o),
(209,663,cs),
(234,663,o),
(255,647,o),
(255,627,cs),
(255,397,ls),
(255,378,o),
(234,363,o),
(209,363,cs)
);
}
);
width = 417;
}
);
}
